/* XPM */
static char *adkok_pkq6t[] = {
/* columns rows colors chars-per-pixel */
"122 117 7 1 ",
"  c None",
". c #0A0909",
"X c #12100F",
"o c #161412",
"O c #28211F",
"+ c #32322F",
"@ c #4A4A42",
/* pixels */
"                                                                       XX                                                 ",
"                                                                      X@@X                                                ",
"                                                                      X@@X                                                ",
"                                                                     X@@@@X                                               ",
"                                                                    XO+++@XX                                              ",
"                                                                    .XXO+@@OX                                             ",
"                                                                   .OXoO+@@+X                                             ",
"                                                                  .OXXoO++@@+X                                            ",
"                                                                 .oXXooOO++@OX                                            ",
"                                                                 .XXoooOO++@OX                                            ",
"                                                                .OXXoooOO++OooX                                           ",
"                                                                .OXXX.ooOO++oo.                                           ",
"                                                               XO..XX.XoOOooo..                                           ",
"                                                               XOX......XXX..O.                                           ",
"                                                              XoXXXX..XXX++++O+.                                          ",
"                                                              XoXXXX++++++++++OX                                          ",
"                                                             .oXXXXooo@@++@@@@@OX                                         ",
"                                                             .oXXXXooo++@@@@@@+OX                                         ",
"                                                            .ooXoXooooOOOOOO++OOX                                         ",
"                                                            .XXXoXXoooOOOOOO++OOX                                         ",
"                                                            .XXoooXoooOOOOOO++OOX                                         ",
"                                                            .XXooXXoooOOOOOO++OOX                                         ",
"                                                           XX..XXXXooooOOOOO+OOX+X                                        ",
"                                                         XX+++..XXXooooOOOOOXXXX+OX                                       ",
"                                                      XXX+++++X...XoooooOXXXX@@++OOX                                      ",
"                                                    XX+++++++OOXX.....XXXX+++@@++++X                                      ",
"                                                   X@++++++OOOOOXooooOOOOO+++@@@+OOX                                      ",
"                                                   X@++++++O++OOOOOoOXooOOOO++@@+OO.                                      ",
"                                                   X@@@+++++++++OOooXXoOOOOOO++XXOO.                                      ",
"                                                  XOOO@@++++OO++OOoooXoo++++OOO++XXX                                      ",
"                                                  XO++O@++++OO++++++ooX+++++@@@+++++XX                                    ",
"                                                  XO+++O@@+++++++++++O+++++++@@@+++++@X                                   ",
"                                                  XO@@+OO+@++++++++++OO++OO+++@@++++@@X                                   ",
"                                                  XO@@+OOO+@@@@@@@+++++++OO++++++++@@@X                                   ",
"                                                 .OO@@+OOO+@ooooo@@@@@@@+++++++++@@@OOOX                                  ",
"                                                 .OO+@+OOO+@ooooOOX.ooX@@@@@@+++@@@O++OX                                  ",
"                                                 .OO+@+OOO+oooooOXX.ooXXXoo+++@@@@O+++OX                                  ",
"                                                 .OOO++OOOOooooOXXX.OooXXoo++@@@+OO+@@OX                                  ",
"                                                .OOOO++OOOOooooOXXX.OooXXXoo+@@+OOO+@@OX                                  ",
"                                                .XXOOOOOOOOooooOXX.OOoXXXXXooo@+OOO+@@OO.                                 ",
"                                                .+XXXOOOOOooooo.XX.OooXXXXXooo@+OOO+@+OO.                                 ",
"                                               X+++++XXXXX.Xooo.X..OooXXXXXoooo+OOO+@+OO.                                 ",
"                                               X+@@@++++++.XXoo.X..OooXXXXXooooOOOO++OOO.                                 ",
"                                              X++@@@@@@@@O.........XXoXXX..ooooOOOO++OOOO.                                ",
"                                             X++@@@@@++OOO.XXXXXo...XXX.XX.ooooOOOOOOOOXX.                                ",
"                                             X+@@@+++OOOOoXXXXooo.X..X..XXXoooooOOOOOXXX+.                                ",
"                                             X@@+++++OOOOooooOooX.Xoo......XXoX.XXXXX++++OX                               ",
"                                             X@@++++OOOOOoooOOooX.OOoooo....oXX.++++++++OOX                               ",
"                                            X@+++O+OXXOOOoooOOOo..OOXXooo....ooooOO+@@@++OOX                              ",
"                                          XXX+++OO+OXXOOOOoooOOo.XOOXXXOOooXXXooooOO+@@@+OOOX                             ",
"                                         XXX+++OOOOOOXOOOooooOoo.XOOoXXXOOOooXXXoooOO+@@+OOOXX                            ",
"                                        XX..++OOOOOOOXXooooooOoo.OOOoXXXXXOOooooooOOO@@@+OOOXXX                           ",
"                                     XXXXX.OOOOOOOOOooXXoooooooo.OOooXXXXXoOOooooOOO++@+OOOOX.XX                          ",
"                                    XXXXX.OOOOOOOooooXXXXo.Xoooo.OooXXXXXoooOOOooOOO++++OOOOO.XXX                         ",
"                                  ...XXXX.OoooooooooX.XXX.OXooo..OooXX.XXooooOOOOOOO++++OOOOOXXXXX                        ",
"                                  ...XXXX....XXooXXXX..X..OO.oo.XOooXX.XXXoooooOOOOOOO+++OOOOOXXXXX                       ",
"                                  ...XXXXOO++@XXXXXXXX....o+O.o.XXooXX.XXoooooOOOoOOOO+++OOOOO.XXXXXX                     ",
"                                  ....XXX++++@+OOXXXXX...Xo+O....XXXX..XXoooooOOooOOOO+++OOOOOO.XXXXXX                    ",
"                                  ..XXXXXO+@@@+++OOO....OXo@+XXX..XX..XXXoooooXooOOOOXO++OOOOOOO.XXXXXX                   ",
"                                 ..XXXXXXO@@@+++++++++.OOoo@+XXOXX...XXXXoooooXoOOOOXXOOOOOOOOOO.XXXXXXX                  ",
"                                 ..XXXXXX@@@++oooo++++.OXoo++XXOOXXX...XXXooooXXOOOXXOOOOOOXX....XXXXXX.                  ",
"                                ....XXXXo@@++oooooo++o.OXoXO++XOOXXX..o...ooooXXOOXXOOOOOXXX+++OOXXXXX..                  ",
"                                ....XXXXo@++ooooooooo..XXXXO++OOooXXX.ooo......XXXXOOXXXXOO++++++X..XX..                  ",
"                               ......XXoo@+oooooooooo...XXOOO+OoooXXX.oooooooOOOOXXXXXOOO+++++++OX...X..                  ",
"                               .....XXXooooooooooooo...X...XXXOooooXX..XoooooooooOOOOOOO+++++++OOX...XX.                  ",
"                              .....XXXXXoooooooooooo...Xooooo@XooooXX..XXXoooooooOOOOOO++++++OOOOX...XX.                  ",
"                              ...XXXXXXXoXXXXoooooo..XXXXooO+@+XXXoXX.XXXXoooooooooooO+++++OOOOOOOX.XX..                  ",
"                             ...XXXXXXXXXooooooXXXo.XXXXXooOO+O.XXXXX.XXXXooooooooooooOO++++OOOOOOXXX...                  ",
"                             .XXXXXXoOooooooooooXX...XXXXooOOOO..XXXXXXXXXoooooooooooooOO+++OOOOOOOX....                  ",
"                            ..XooooooOOoooooooooooXo...XXooOOOOX..XXXXXXX.ooooooooooooooOO++OOOOOOOX....                  ",
"                            .....XXXXXOOOoooooooooXooX....ooXXOXXXXXXXXX..oooooooooooooooX++OOOOOooX....                  ",
"                            .......XXXXoOOOOOoooooXoXXo..oXXXo..XXXXXX....oOOOOOooooooooXXOOOooooooXX...                  ",
"                             ......XXXXXXoooooooooXXXXoooooooooo.XXXXXXX..ooooXoooooooXXooOOooooooOXX...                  ",
"                             .......XXXXXXooooooXXX.XXXoooooooooo..XXXXX.ooooXXXXXoXXoXoooOOoooooOOXX....                 ",
"                             .......XXXXXXooXXXX.....XXXXooooooooo.......XXXX..XXXXXXXXoooOOoooooOOXXX....                ",
"                             .......XXXXXooXXXXX.....XXXXoOOOOOoooX......XXX.......XXXXXoooOoooooOOXXX....                ",
"                             ......XXXXXooXXXXXX...........XXXXXXX.......XXX.......XXXXXXooooooooOOOXXX...                ",
"                             .....XXXXXooXXXX..............XXXXXX........XXX........XXXXXoooooooooOOXXXX...               ",
"                             ....XXXXXoo...................XXXXX.........XXX.........XXXXXoooXXoooooXXXX...               ",
"                             ....XXXXoo....................XXXX..........XXX.........XXXXXX.XXXXoooo.XXXX..               ",
"                             ....XXXoo....................XXXXX..........XXX..........XXXX.XXXXXXoo...XXXX.               ",
"                            .....XXXXX....................XXXXX..........XXXX.............XXXXXXXo.....XXX..              ",
"                           .....XX.XXX....................XXXX............XXX.............XXXXXXX........XX.              ",
"                           .....XX..X..................XXXXXXX............XXX.............XXXoXXX..XX.....X..             ",
"                          ......XXX.X.....XXX.......XXXXXXXXXX............XXXX.............XooXXXX.XX......X.             ",
"                          ......XXX........XXXXXXXXXXXXXXXXXXX............XXXX............XXooXXXX.XX........             ",
"                         .......XXXX...........XXXXXXoooo.XXXX............XXXX............XXoooXXX..XX.......             ",
"                         ......XXXXX...........ooooooo....XXX.............XXXX............XXXooXXXX.XX.......             ",
"                         ......XXXX.......................XX...............XXX............XXXooXXX..XX.......             ",
"                        .......XXXX........................................XXX........XX...XXoooX...XXX......             ",
"                        .......XXX..........................................XX.......XX....XXooo.....XX......             ",
"                        ......XXXXX.................................................XX.....XXXoo.....XX......             ",
"                       .......XXXXXXX........................XX.................XXXXX......XXXXX.....XX......             ",
"                       .......XXXXXXXXX......................XXXX..........XXXXXXXXX.......XXXXX.....XX......             ",
"                       .......XXX....XXXXXXXXXXXX.............XXXXX.....XXXXXXXX...........XXXX.......XX.....             ",
"                       ......XXXX.............XXXXXXXX.........XXXXXX.XXXXXXXX..............XXX.......XX.....             ",
"                       ......XXXX.................................XXXXXX....................XXX.......XX.....             ",
"                       ......XXXX............................................................XX.......XX.....             ",
"                       ......XXXX............................................................XX........X.....             ",
"                       ......XXX.............................................................XX..............             ",
"                      .......XXX.............................................................................             ",
"                      .......XX..............................................................................             ",
"                      .......X................................................................................            ",
"                     .......XX.................................................................................           ",
"                     .......X..................................................................................           ",
"                    .......XX..................................................................................           ",
"                    .......X...................................................................................           ",
"                    ...........................................................................................           ",
"                    ...........................................................................................           ",
"                    ...........................................................................................           ",
"                    ...........................................................................................           ",
"                  .............................................................................................           ",
"                  .............................................................................................           ",
"                 ..............................................................................................           ",
"                 ...............................................................................................          ",
"                ................................................................................................          ",
"                ................................................................................................          "
};
