/* XPM */
static char *_fab95e8c0ca49788b4ebbceeb6c7916IxI2GQKQBJv3biKX[] = {
/* columns rows colors chars-per-pixel */
"64 64 46 1 ",
"  c #0B0A0A",
". c #100F0E",
"X c #12100E",
"o c #141412",
"O c #191614",
"+ c #161915",
"@ c #1D1A16",
"# c #1D1C1A",
"$ c #201C17",
"% c #221E19",
"& c #1C211C",
"* c #2C220F",
"= c #262017",
"- c #2B2415",
"; c #24211C",
": c #2A241D",
"> c #332A1D",
", c #252524",
"< c #292621",
"1 c #2F2821",
"2 c #2F2D2D",
"3 c #302623",
"4 c #322B23",
"5 c #382F27",
"6 c #373027",
"7 c #393127",
"8 c #3C332A",
"9 c #40372C",
"0 c #43392E",
"q c #483D2E",
"w c #463C31",
"e c #493F32",
"r c #4D4235",
"t c #504537",
"y c #524638",
"u c #564A3A",
"i c #594E3D",
"p c #5D503F",
"a c #5F5240",
"s c #605341",
"d c #655847",
"f c #6A5D4A",
"g c #6E604C",
"h c #72644F",
"j c #7A6B55",
"k c #796E5B",
/* pixels */
",,,,,,,,,,,,,,,,,,,,,,,Ooo#,,,,,2,,##,,,,,,,,,,,,,,2,,,,,,,,,,,,",
",,,,,,,,,,,,,,,,#,,#,,,##@##,,,,,###O#,,,,,,,,,#,,,,,,&,,,,,,,,2",
",,,,,,,,,,,,,,,,,,,,,,,2#,,,,,,,,#,,,##,#,,,,,,,,,,,,,,,,,2,,&,,",
"&,,,,,,,&,,,,,,,,,#,,,,,,,,,,,,,#,,,,#,;,,,,#+O##,2,,,&,,,,,,,,,",
",,,,,,,,,,,,,,,,#@O#,,,,,,,,####,,,,,,,,,,,,#oooo#,,,,,,,2,,,,,,",
",,,,2,,,,,,,,2,&#oo@#,,,,,,##OO####,,,#,,,,,#####,,,,,,,,,,,,&,&",
",,,,,,,2,,,,,,,##O@O+#,,,,,#OOOOo#$,,,,,,,,%%#;;,,,,,,,,,,,,,,,,",
",,,,,,,,2,,,,,&###OO+##,,,,,,#,@OO#$,,,%#%@%#,&,,,,,,,,,,,,,,,,,",
",,,,,,,,,###%@%%###OO#,,,,,,,,,;,;,#;;%%@#$$%,,,,,,,,,,,2,,,2,,,",
",,,,,2,,,#$$;3;%%OO$%%;%;,,,,%#%#####;#,:::%;,,;,,2,,,,,,,,,,,,,",
",,,,,,,,,#,,%$$O@$%##,%%##,,;;343####%%%%%%%;,,,,,,,2,,2,,,,,,,,",
",,,2,,,,,#O#$%%;:;;%%444;%%;11483O$3;3;$%%:;,,,,,,,,,,,,,,,,,,,2",
",&,,,,,,,%:3%%33%:>:%407545579e8O$3444433445;,,,,,,,,,,,,&,,,,2,",
",,,,,,,233943343;%444@5rw0rrut8$O34444444480;%%%,,,2,,,,,,,,,,,,",
",,,,,,,%<-we8444444487$:qe81$@$:508344445tr:O::%#######,,&,,,,,,",
",,,,,,,,,<-9yeeeewrrt5%%@%%%@OoX%wyew545u7%XX4::,,,o#++#,,,2,,,,",
",,#%,,,,,,<$>qiiiust4o@%;;;%OOOOO$:trw093X  3544,22#oXXo%,,,,,,,",
",,%%#@%%<;,,;$;%;;$X. .@$@$$$$$@OO$%;-%$X..O:00022,#$OO$@@@,,,,,",
",3%%$%%#%%;%%@O+$$Oo.  @;;$%:::4:O:55;%%%..O@%-;Ooo#%$OO$%$%,,,,",
",,##;:;;;%%%%4:::%$$@OO>41>44%$44:O5e9755>:::%OOOOO;>%%%%%%$%<,2",
",,%@$@@$:%4444:%443::%$9944444:4444.5rit0%O .@@$o.  O$$%%@%$%%,,",
",<%;%443%%34:;434%435%O%qi7888889te:$o$$OOo  X..@$$$$$$%;%%#%,,,",
"<<:q555:%-34:%555:48-.O$:4iiiitput3o..OOXO@OX:$$%333333>4441<%,,",
"<-:quuueee999989eeu9O  O+o178quu7%@.XX   .O@O3;:33:33$%4444445<1",
",:=@7qere8::%OO@>r9%     X%%=%%%X...       X;44%44%:41>50rrre5::",
"<;&@$;5rre0995>-@;%O     XO@@OOXX          .705:4444400t0455>=::",
",;:%;:;%$$@Ooooo@.Xo       XXX              O;tr0uruutq%$O%-;::;",
"::70q00>:;%.$$Ooo.         .                 X:0uyiat9%@@50084;;",
"::utq4XOO. X@@$O.                             .XO;88:$-44u9%90::",
"--84;+OO.  O@::o                               .OO:99ety9;O@;>-:",
":-1@O$O%:4:1;%%.                                .o$%;;:;%;;:=:::",
"::&=+::tute7%@o                                  .:O41>>6r6>&&1:",
"<<$$.7hfsiii9O                                    OO80er44%%@$;;",
"<:Oo.:;iuusfu.                                    @X%%%$@@$4%@,;",
",<Oo:>$%:ryt:.                                    O;1;@999904+,;",
",,O$4:$%%5q4@.                                     >57yfg94:;O;,",
";,O %@@%3:7@o.                                   .o@@:5784=%$O:,",
",;@OO3%%4%:oo$                                   .OO$@%44:@%OO:,",
",,@X@:%@:;:OOO                                   .O@$OO$@@@@Xo,,",
",;@ OOOO$$::$.                                   X8007577OO:@O<,",
",<O  OoX .OOo.                                   riuuyttr7$;@o<,",
"<,o  X%:<1;@.             oo                    .e9ye79577X..O;,",
",,4=@180w:;1O     o.   .....   ...   .o.        @t:03:t$14%;%:;,",
"<,68rrr4%@$%.           o.ooo.   .    .oo.       :;4$%%@#O%wrr,<",
":;ii04;Ooo,o   .o.  .  ooooooo...ooo..          .O.@+@@XXX@:uy;:",
":-07=#:8trueo ooo  oo.  .....  o  oo.  o...oo+  .$5741:%@$O$%q-:",
"-*$:::eiaaaa&  o   o    . ..o.oooo.  o .o .oo.  @:9e05804>%$+=*:",
":-XX%4spaarar.        .+ooo..o+o++.  .         ,5ettrrtuyw9;%4:-",
",:OO@:rhhjjgrO  oooo   ooo++oooo oooo  .ooo   :rppppapisaty7@%:<",
",:;@%O;9ragd;+. ..    .o o+ooooo++++o    .o  #fgfstpssfgsse$O@::",
",<76:%O:qr00%%O    o++#o..oooooo#oo    ..    =qruhhkkft954:$OX,<",
"<:4e01@%56:1:4o  .oo+o oo#####oooo++.#,#+o   O>08ewete53%:%$@O<<",
"::6=@+XO34:t-4. ..oo&#o###,,,,,oo####o++&+o. X@65ew43:::;4=@@@,;",
":-1=+OOXX@;e4;    o##o+o++o###o#o#,&##ooo  .X @@:9t5%<3%%=@O@%;,",
"1:&=XX@OoXO%;.   o+#&#+o+++#####oo#,,,&o      @X%48%%::%@O@@OO:,",
"::    %4%$O$% Xooo###+o##,,,,#oo#+oo++++. +o&.XX%:$%-%@.XOO@@+:,",
";;&XX O:4:::%    .++o##++###,#+,2,++#&&#&&,,&&.+==O>&+X O%@o.X,,",
";;&&&&X&44OX   ++O#&++++#&&##&#,###+&&&,,,,&&&++X+XXX &&XXX+&+:<",
",,:&;&&X@X    &###&;&&,,,,,&&,##,,,,,,,,,,2,&;&&.  ++&&&&&&&&&,;",
"<,<&&&&&.XX+&&&&&&,,,&,,,,,,,,,,,,,,,,,,<<,<,&&&&&&&&&,&&&&&<,;,",
",,,<:&&&&&&,,;,,,,,,,<,,,,,,,,,,,,,,,,,,,,,,,,:<&&,,,,,&&&&&,<,,",
",,,<<,,,&,,,,,,,,,,,<,<,,,,,,,,3,,,,,,,,<2,,<,,,:<,<,<,&&,,<<<<,",
",<,;,<<,,,;;<<,,,<,,,32,,,,2,,2,,,2,,,2,<,,<,,,<<,<,<<,,<<<<,,,<",
",,,,2<<,<<,,,<,<,2,,,,,,,,,,#,,,,,,,,,,,,,,,,,,,,<<,,;,,<<,<1,,,"
};
