/* XPM */
static char *_98581489e1544879517708d748b7aa7XsmUq1DXRx8jDOpE[] = {
/* columns rows colors chars-per-pixel */
"64 64 41 1 ",
"  c #242321",
". c #242322",
"X c #262523",
"o c #272424",
"O c #272624",
"+ c #292325",
"@ c #282424",
"# c #282524",
"$ c #2B262B",
"% c #2D2530",
"& c #2E2631",
"* c #2F2632",
"= c #2F2732",
"- c #342B3E",
"; c #372840",
": c #3A304B",
"> c #3E3049",
", c #3D3957",
"< c #473447",
"1 c #443951",
"2 c #672B56",
"3 c #623F5F",
"4 c #71335C",
"5 c #57404E",
"6 c #47415D",
"7 c #574351",
"8 c #5B4A56",
"9 c #5D4E5F",
"0 c #68525B",
"q c #524A63",
"w c #5E5361",
"e c #5E5265",
"r c #6B5B66",
"t c #745067",
"y c #75636C",
"u c #7F6C6C",
"i c #911D55",
"p c #827577",
"a c #997D76",
"s c #AC6776",
"d c #C7B198",
/* pixels */
"+@OO    OoOOOOOOXXXXXX  XXXX  OOOXXOX XXoOOOOX.XX@OO...XXOOOOOXX",
"+@OOO   ooOOoXOOXXXXXX XXXXXXXXOOOXXX   XoOOOoXXX XO.XXXXXOOOOXX",
"OOOOOOOOOOOO XOOX XXXXXXOOOOOXXXXOOOOOX ..XOOOXXOOXXXXXXX.XXOOXX",
"OOOOOOOOOOOOXXXOXXXXXXXXOOOOOXXOXOOOOOooXOXXOOXOOOXXOXXXOXXXOOOO",
"OOOOOOO OOOXXX XOOXXX XOOOXXXXOOOXOXXXXXOOOOOOXOOOXXXO.XXXXXOOOO",
"OOOOOO OOOOOXX XOOXX+X OOOXX+XOOXXXXXXXXOOOOOXXOOOXXOOXXXXXXOOOO",
"O OO   OOOXXOO  OOXXXXOOXXXXXOOoXX XXX  XXXXXOOOOXXXOOXXOO..XXXX",
"O     OOXOOXOOOOOXXXXXOOOXXXX@OoX XXXXXXXXXXXOOOOX.XOOXXOOXXXXXX",
"OOXX OOOOOOOOOO OOXXXXOOO XXOO++XXXXXXXXXXX  OXXX.XOXXXXOXXX.XXX",
"OoXXoOX XXOOOO OOOXX XXOOXOOOOO+XXOXX XXXX   XXXXXXOXXXXOXXXXXXX",
"OX XoOO  XOOoo  OOOOXXXOOOOOOO++XXOX XXOXOXXXXXXXXXOX.XXOXXOOOXO",
"XX XXOO  XOOX  @XOOOXOOOOOOOOO++XXXXXXXOXOOXXOOOXXXXX.XXOOXOOOOO",
"XOXX XO XOOOX XOOOOOOXOOOOO-;;;;;;;;;OOOXXXXXXOOXOOOOXXXOOO@OXOO",
"OXXXXOOOXOOOOOOOOOOXXXOOOO+-;;;;;;;;;OO@OX XXOOOXOXXXOXXOOOXXOOO",
" XXXOOOO OOOOOOOOOX X XO$*&1111111111&*$OX  XOOOOOooXOOOOOXXXXXX",
"X XXOOOOOOOOOO OOX  XX++*;-qqqqqqqqqq;;=OX XXOOXOOooOOOOOOXX XXO",
"XX  XOXOOOOOX  OOX OOOXO=;;qqqqqqqqqq;;=+OOOOOOXX..XOOXXXXOOXXXX",
"XXXX XOXOoOO   OOOOOO  X=;;qqqqq,,,,,;;=oOOOOOOOXX@XOOXXXXXXOXXX",
"OOOOOOOO oO   OOOOOOOo  =;;qqqqq,,,,,;;=ooXXXXXOOOOOOO XXXXXOOXX",
"OOOOOOOOOOOO OOO OO Oo  =;;qq944ppt22;;=OOXO XXXOOOOX@O XXXXXOOO",
"OOOOOOOO  OOOOOOOOOXOOOO=;;qq4iiddsii;;=OOOOXXXXXOOOOX XXOOOXOOX",
"OXXXXXOOXX  OOOOXOOXOOOO=;;qq4iiddsii;;*OOOO XXXXOOOXX XXXXoOOOX",
"OOXX  OO OX OOOOXOXXOOOO=;;qqraa--raa;;&OOOOX   .XXOXXXXXXXXOOOO",
"OOooo OOOOOOOOOOXXXXOOOO=;;qqyaa;-0aa;;&OXoOX   XXOOOOXXXXOOOOOO",
"OOOOXOOoooOOOOXOX  XXXXO&;;qqw00<<300>>-&=OOXX  .XXOOOOOXOXXXXXX",
"XOOOXXOoooOOOX   XXXXXXX*;;qq1-;<3<-*1,:;;OOOXXX.XXOOOOOXOXXXXXX",
"XXOXXXXXOOOOOOXOOoXXOO@o*;;qq1;;33<-;,,:;;OOOOOX. XOOOOOOOXXXXXX",
"XXOX XXXoOOOOOOOOX XXX;;1qqqq1;;=-=-;;;:,,;;=XOX  XOOOOOOOXOXX  ",
"XXXXOXXXOXOOOOOOXXXXX ;;1qqqq1;;;;;;;;;:,,;;=XOXXXX OOOOOOOOOOXO",
"XXXXOXXXXOOOXXOOXXO$&&116qq11>;;;;;;;;;:,,;;=OO@XXX@OOOOXXXXOOOO",
"OOXXOOOXXOOO  XXXOO&-;qqqqq;;;;;;;;;;;;:,,;;=OXXXXXXooXXX XoOOoO",
"XOXXOOOOXOOOX  XXXX&;;qqqqq;;;;;;;;;;;;:,,;;=XXXXXXXXXXXXOOOOXoO",
"XOXXXXXX  XO+XXXooo*;;qq6,1-;;;;;;;;;;;:,,;;&OXXOOOOXXXXXOXXOOXO",
"XOOOXXXXX XOOXXXooo*;;qq6,1-;;;;;;;;;;;:,,;;$OOOXXOOOOXXXOXXOXXO",
"OOOOXXXXXOOOOOXXo.+%;;qqerr-;;;;;;;;;uuw,,;;&oOOXXXOOOOXXXXXXXXX",
"OOXOOOOOOOOOXXXXO.+%;;qqyas;;;;;;;;;;ddu,,;;&OXOXXOOOXXOX..XOOXX",
"XX XXXXOOOOOO..XOOO=;;qqyaa;+*;;;;;;;ddp,,;;&XXOXXOOOOXXOXXXXOOX",
"X XXXXX@OOOO ...OOO=;;qq1;;ddp;;;;udd;;,,,;;&XXXXXOOXXOOOXXOXOXX",
"XXXX  XXXOOOOOOoOOO=;;qq<;;ddp;;;;udd;;:,,;;&OXXXXXOXXXXXOOOOOXX",
"OOOOXXXOOOOOOOOoOOO=;;qq1;;ptppp;;8uu;;:,,;;&OO.XXOOXoXo+OOOOOOX",
"OOOOOoXOXXXXXXOOOOO$;;qq1;;;;pdd;;;;;;;:,,;;&OO.oOooOOXXOooXXXOO",
"OOOOOXXXXXX.XXOOOOO&;;qq1;;;-udd;;;;;;;:,,;;&OO OOooOXXXoooXXXXO",
"XXXOOoXXXXOOXXOOOOO&;;qq1;;;-;;;;;;;;;;:,,;;&OOOOOXXXXXXOOOXoXXX",
"XXXXXXXX.O..XXOOOOO&;;qq1;;;-;;;;;;;;;;:,,;;&O OOOOOXXXXOXXOOXXX",
"  OOoOoOOO.O.OOOOOO=;;11:;;;;;;;;;;;;;;:,,;;&OO OOOOXXXOXX XOOXX",
"O OOooOOOOO.OOOOOOo&;;;;;;;;;;;;;;;;;;;:,,;;&OO OOOOXXXXXX  XOXX",
"  OOOOOOOOOOOOOoOOO&;;;;;;;;;;;;;;;;;;;:,,;;=oOOOOOOOOOOXX  XOOO",
"O  OOO OOOOOOOOoOO.=;; .&;;;;&OO;;&+O;;;;;OOOO OoOOOXXXOOOX XXOX",
"OO OOOO OOOOOO  OOO=;;XX=;;;;&OO;;=O@;;;;-OOooXXOOOOXXXXXOOOXXOO",
"OOOOOOO OOOO   OOOO$==OO$===&$OO==$OO**&&&O ooOOOOOOXXXXOOOOOOOO",
"OOO OOO OOOOXX oOOOOOXXXOOXXXXOOOOOOOOOOooOXOOOOOOOXOXOOOOOXXOOO",
"OOO OOOOOOOOXOOoOOOXXXXXOOOXXXOOOOOOOOOOOXOOOOXXOOOXOOOOOOXXXOOO",
"OO XOOOOOOOOOOOOOOOXXXXXOO@O  OOOOOXOOOO   OXXXXOOXXXXOOOXXXXXXX",
" OOOOOOOOOOOOOXOOOOXXXXXOO@XOOOOOOOOOOOOO   XXXXXO  XXOXOXXX  XX",
" OOXXOO OOOOXX OXXXX XXXOXXXXOOOOOOOOOOOOOo XXXXOOXXXXXOOOOOoXXO",
"ooXO O OOOOXX  OXXXX X XOXXXXoOOOOOXXOOXXoo X..OOOXX XXXOOOOOoOO",
"OOXXXOOOOOOO  XoXXXXXXX OOOOOOOOOOOXXXXX..XOXXXXOOOOXXOOOXXOOoOO",
"OXXXXOOOOOOOXOOoXXXXXXXX OOOOOO+OOOX  XX..XXXXOOOOOOXOOOOXXOXoOO",
"XX XOOOOOOOOOOOOXXXXX@XXXOOOOOXXOOOO..XO OOOXOOOOOOOoOOOOXXXXXOO",
"X XXXOOOOOOOOOOOXX XXXXOOOOOOOXXXOOOXXXOOO OOOOOOOOOOOOOOXXX XOO",
"XX  OOOOOOOOOXXOXXXXOOOOOOOOX.XXOOOOXXXXOOO XXOXOXXXoOOOXXXXXXXX",
"    XOOOOOOOOOX   XXOOOOOOOOX..XOOOOXXXOOOOOXXOXXX XOOOOOX XXXX ",
" XXXXOOXOOOOOOXoXX  OOOOOOOOXXXOOOOOOOXXO   XXXOOOO oOOOOOOXOXXX",
" XXXOOOXXOXXOOOoXX  OOOXOOOOOXOOOXXOOOOXoO XXXO . OOXXXOOOOXOXXX"
};
