/* XPM */
static char *f7d4d94e094447cfa673b18cb6e3fc2e7r6NbLP6vMlRdtz1[] = {
/* columns rows colors chars-per-pixel */
"64 64 120 2 ",
"   c #0F0D0C",
".  c #110F0E",
"X  c #12100F",
"o  c #161412",
"O  c #191614",
"+  c #1B1916",
"@  c #1D1C19",
"#  c #221D1C",
"$  c #1C211C",
"%  c #23211E",
"&  c #28211F",
"*  c #262523",
"=  c #2B2523",
"-  c #272A24",
";  c #2E2926",
":  c #2E2A29",
">  c #302726",
",  c #312926",
"<  c #342C2B",
"1  c #382E2B",
"2  c #34322D",
"3  c #3A322E",
"4  c #37382F",
"5  c #372F30",
"6  c #363230",
"7  c #3B3232",
"8  c #3D3933",
"9  c #3E3E38",
"0  c #413634",
"q  c #443A36",
"w  c #463C39",
"e  c #4B3F3B",
"r  c #424037",
"t  c #45423A",
"y  c #4D433D",
"u  c #4A483E",
"i  c #51453F",
"p  c #4F4640",
"a  c #4E4B41",
"s  c #504740",
"d  c #504C41",
"f  c #534D43",
"g  c #504F43",
"h  c #534D44",
"j  c #534F44",
"k  c #544F45",
"l  c #584F46",
"z  c #4E5042",
"x  c #505043",
"c  c #555246",
"v  c #535446",
"b  c #585347",
"n  c #545448",
"m  c #555449",
"M  c #565749",
"N  c #5B5349",
"B  c #58534A",
"V  c #58574A",
"C  c #5B574B",
"Z  c #5D554B",
"A  c #5B584A",
"S  c #5A5B4C",
"D  c #5C5D4E",
"F  c #5E5C4F",
"G  c #5D5F4F",
"H  c #60564C",
"J  c #615B4E",
"K  c #625F4F",
"L  c #625E50",
"P  c #5E6050",
"I  c #616352",
"U  c #626252",
"Y  c #646453",
"T  c #646454",
"R  c #646655",
"E  c #696455",
"W  c #686656",
"Q  c #696756",
"!  c #6A6759",
"~  c #696A58",
"^  c #6A6A59",
"/  c #6B6B5A",
"(  c #6D6E5B",
")  c #716C5B",
"_  c #726D5C",
"`  c #706E5D",
"'  c #70725E",
"]  c #72725E",
"[  c #747661",
"{  c #757661",
"}  c #787663",
"|  c #7A7663",
" . c #777863",
".. c #797A64",
"X. c #7B7C66",
"o. c #7C7E67",
"O. c #7D7E67",
"+. c #7F7D68",
"@. c #7C7E68",
"#. c #7E7E68",
"$. c #807D69",
"%. c #817F69",
"&. c #7F8069",
"*. c #83806A",
"=. c #80826B",
"-. c #83826C",
";. c #83856D",
":. c #84866D",
">. c #86856E",
",. c #84866E",
"<. c #88856F",
"1. c #88866F",
"2. c #898770",
"3. c #888971",
"4. c #8A8B72",
"5. c #8C8D74",
"6. c #909177",
"7. c #94957A",
"8. c #98997D",
"9. c #9C9D80",
/* pixels */
"* * * * * * * * % * * * * = - * * * * : * * * * - * * * * * * * * * * * * * * * * * : * * * * * * * * * * * * : * * * * * * * $ ",
"* * * * * * * % * * * * * * * * * * * * * * * * - * * * * @ o @ * * * * * * * * * * * * * * * * * * : * : * * * * * * * * : * * ",
"* * * * * * = * * * 8 2 - * * = * * % * * - * * * * * * * o O o * * * * * * * * * * * * * * * * * * * * * * * * * * * * * * * $ ",
"r w 4 * * - = * * : n t * * * - * * * * * * : * * * * * o X @ # * * * * * # # * * : * * : * * * * * * * * * * * : * * * * * : 9 ",
"G G S g g : * * * K R G 7 * * * # % * * * * * * * * * # o . o # * * * * # * * * * * * * * % * * * * : * * * * * * * * * : 9 m G ",
"G I 3.( x % * * y 7.I 0 = * # * * * * * * * * * * : * +   . X O o * * * o 9 : O * * * : * * % * * * * * * * * * : * k n F F P G ",
"O.7.O.n q # * 2 ] 5.G 5 , 7 # * : * * * * : * * * : * O .   X @ * O * + X @ 9 * # * * * * * * * * * * * * * * * * * #.#.Y G G G ",
"8.O.n 8 7 , % 3 %.I s 7 < 7 < @ * * - * * * * * * * @ . . X X # * X @ * o X * : O * * * * * * * * * * * * : * * % : F =.#./ G [ ",
"5.G 7 = 3 0 # q Z P y 0 7 > 0 * * * * * * * * * $ $ o X o . o o o . # 0 o o + # O % * * * * * : * * * * * * * * * 5 B B 3.9._ ! ",
"G w , = 0 7 = q k f e 1 @ = 0 , * * * * * * * * * - 2 2 2 - @ O * @ p 7 o . o O o % * * * * * * * * * * * * * * = 5 | [ k _ 9.5.",
"t < = & < 0 = < < < , # O # O 1 = * * % % % * l S : 6 2 2 2 2 : * * ! e > + + # @ + = * * * * * * * * * - * - * # 7 %.#.p e ! #.",
"5 = # = , 1 y g V n 4 3 & & # & > * * * * % * %.&.2 6 9 6 7 8 9 @ * ] p 7 7 & 6 < @ % * * : * * * * * * * * * * # e ! %.y e T m ",
"7 = # = > < _ <.;.[ I >.a 8 = % > = * * * * w >. .f * 7 9 9 9 % # 9 B 5 < 5 @ % * o # * * * * * * * * * * * * * # e B ] y e p 5 ",
"5 % # # = 1 Z 5.<.2.#.V 7 7 = = > = * * * 0 9.[ 9 = * * 9 7 + & 5 p g 5 = # O O & o # * : * * * * * * < * * * # < e y G y e w 7 ",
"5 # & + # < y P p e e e 7 7 = , = = @ * < ( 6.T w ; 5 % = # O % w : < * O & & O + o @ % * * * * * * * * * * * # 2 > 7 e e e 0 7 ",
"5 # O + + < y P s e e e 7 7 = 1 < = @ * , X.L k w 5 = ; o + o # R ;.w 7 5 = & o * * # O * * * : * * * * 8 4 8 , g c a 7 7 5 * < ",
"& + + = = 8 e V i y e 7 , 3 = = = + = = < V G f w 5 , & = o o , ( | s 7 , # * # * < @ o * * - * * : 2 b G G u 0 f ( O.( b f # + ",
"& = 5 > e k i 7 1 7 q w M : & # o # , # ; t s e 5 # = # > @ # 2 0 y e 0 , * % + + # o . = * % 8 A P G G K u 0 y K 8.3.V e e # # ",
"5 5 = 5 n G 5.] u 3 2 R A 8 + + # & = # = # ; < # O + O > , # q t < 3 7 = e u u a % # + @ = * w 8.~ G G K A 0 e K 8.<.e e 0 1 , ",
"5 5 = < y  .8.] b 8 V X.b q = - 1 < # w k G G s 8 2 : & # 1 = y %.q 2 9 G G P P G / P z @ * * q G 5.;.Y ] b 0 e y ' ~ x e q 5 7 ",
"7 7 , & y Z <.G B q 7.#.0 = , # 5 < > ! 5.5.>.P 5.F 7 = # = * = c K G G P P P G [ 7.G 2 O @ * i R Z <.6.[ < e y y G G l e w 5 5 ",
"7 3 % % e f  .A 3 | -.A 8 < 0 7 > = > g #.#.| | m w 7 < = = , # f 8.( G G G ! 6.6.G t 3 o O = b 7.k s [ f e e e m G s e e e e 7 ",
"7 ; r 8 ; 3 u i < _ R l w 1 < 0 # # > e F g e e e q 5 < > = = + i K 7.2.G G 7.9.Q w < q & O & l 5.k e u 3 e e e Z S s e e 7 w 7 ",
": @ 0 A G A 7 % 0 s F s w < = 3 7 O = e F f e e e q 5 > 1 5 & O f G I 7.>.] ] #.t < # w , O = i [ k e = y e e e g s e e e w 5 < ",
"* = e y Y 6.~ u 0 t y q < # # # = > w 3 i i y y e 7 7 = & = @ = y ..n B *.8.] n 1 = = w < o 7 e b f y = w , < w e e e y e e , < ",
"* y e y <.>.A 8 q 8 8 , @ + + + = 0 n y r < 3 w 0 3 7 = # O < G f 8 w 8 c >.I q > = > 7 1 + 4 1 q 2 ; K O.M f < 7 1 7 e w 1 = # ",
"% e e L 6.X.w q K R Y A n a q = , b I 2.3.x u , > = & @ @ * e C S A x f 7 Q 7 5 = # = 1 q = V z - $ % t ] i ;.6.L y 3 1 1 0 0 0 ",
"% 3 e ! R i 1 K 7.8.8.X.#.S 6 < = y ( 8...A i e w 7 7 0 0 0 p k f G G G %.t 7 5 # = # 3 0 # a >.[ $ , 3 Y &.A 9.8.[ G Z b y 7 7 ",
"$ % , y y y , i Y Y H H i w 7 < & w r K A y y y q ; < 7 e l C S S P I %.<.y 3 < O & # , = O x 7.V = , 0 f Q 3 7.9.2.J p e e w 7 ",
"$ $ $ : w e 1 e V c e e e q 1 = q r S Q _ R G K w > 9 a k S n y P P [ | x y , < # # O & O O u S 2 = % & w t = 5.| m y e 0 q w 7 ",
"< : $ $ = 1 3 e b c e e e 0 q ( G G R 8.5.I A S S p n G G S S n I  .| G I y , 5 O O O + = & 4 r , # # ; 8 t t a m e e q 5 5 w < ",
"7 < O $ $ ; u , 3 w y e e 7 t 8.O.G R #.I G y c S k G G #.@.#.#.#.Z e L 9.B & * O % = & 3 0 * 2 = = 7 ( [ 7.5.w e e e e e w 0 5 ",
"7 < @ # = t A ] =., , 3 3 , q b 3.9.! G G ! ! L 6.%.%.%.| w w e ;.a e L 9.H = & = 1 = = 1 0 + # > > 7 w e y b 0 # q 3 0 q 0 3 = ",
"= = # O = b G 5.7.G Z 1 3 , y G B >.7...~ #.! L l < < # 0 0 7 7 R s y L ..s > : < & & = 0 w = # , = < w e i b 3 # @ $ % & + + O ",
"O o o o # y A 7.] b i e 7 % N 7.G s ~ 9.&.S 5 = = 5 5 # * 0 7 5 q y e V N e 5 ; < = & = < 0 u u + = 7 7 w 0 B u 7 + @ $ $ $ @ + ",
"$ $ $ $ # e y &.' S b b w * H 8.L e p >.! 9 : & = 5 0 & & 0 5 7 8 e e i s e 5 # 7 & # w b P V f 5 = = < 1 G 2.[ u # % = 2 % $ $ ",
"- * * * - , q S A y i V u , i %.G e s | 0 7 & & & : 0 = # + 5 5 < 7 0 q 0 4 t 2 , = # n  .I Z V f w < < s d S V 3 + = < 2 0 % + ",
"= * $ : M q q 3 3 u e e q 1 y Q F e p w 7 7 & & & < 0 & # + 7 < # 2 q q k [ O.K > = # y R ..I g G B a w G G -.' x u , 3 < = # + ",
"* * # w i V ' ] 8 , # , & 3 y y l e e 7 7 5 o & & > = + O + # + + t %.;.5.8.9...u = # ) _ s .._ _ [ R L B C R ' ~ 3.3 & # + # O ",
"$ % 3 y e F 6.~ b y + O @ 3 , 0 e e e 7 5 5 # & O # O + # 5 = & # 3 e s I [ 3.8.] > > F ] e ( 5 7 g n L / _ R  .5.K 0 # O % % O ",
"$ $ 0 e i %.6.A s s i # q Z b u 7 7 < # < * O o @ # 5 < + 5 7 0 7 7 y e g J U ( 8.< 1 y G e w 7 7 & < < * p -.#.l %.w & & # O + ",
"$ % 0 t Z 5.( y e e w 1 y Z *.>.G g w < * @ o & 5 < 1 e O < w e 7 7 e e e s V K [ I 2 3 e w 7 5 > # 0 = & 5 l J y <.i # O O $ % ",
"* $ % , f V y y e e , e i O.8.] e 7 5 < & = 7 w 7 & < e # > w 0 7 q e e e e d i S q O...Z B # = # O 5 = # : 5 p y I y @ $ $ $ $ ",
"$ $ $ % , e e e e e , e y ..8.Q e 8 7 < < 0 w < & & 0 e = < 0 7 1 7 0 0 w e e e 0 ~ 6.>.L l # # = + # # # ; 5 w y y 1 , $ % $ = ",
"* % $ $ % , 0 y e w < e e k +.G s e 7 7 0 e 5 & = # 1 e 1 = 6 7 < 7 = < 5 0 w e 3 6.I V e w 5 w 5 # 5 & + @ > ; t a n e * * * * ",
"% * * $ $ $ % > * * w e e k F F y e w w e 5 5 > # # > 5 1 @ 7 7 = = = # & 5 5 0 v Z f i e e 5 w < > 1 < 7 = ; 5 w _ 6.f 2 * * * ",
"- * * % $ $ $ $ @ < e e p F B e e w e w 7 7 5 = # # > 5 < @ < < p # O + # & & = f y y w 0 0 < 0 > 0 5 & , w 1 5 w x 6.f 0 = * * ",
"* - * * = % % % @ 0 e e p G Z e e q e e 7 7 5 = # O = = # O # * 3 # o + = # # 7 0 q 7 < # & , 7 & 0 < # = 7 e q e A I e y * * * ",
"* * - * * - * # 7 y e e y b y e e e 0 > 5 5 5 > & # O # $ 2 G G G A 4 8 ; t 3 q Z 2 = * + + t : # < = + = 7 7 e w e H k e 0 * * ",
"* * * * * * * @ # # > 3 e e e e e e q & 5 7 5 & # # # O n D G G G G G G r 4 & ] 3.V y 8 # > L 7 = @ + # = 5 5 7 e e g s e e = = ",
"* : * * - - % 7 g G S 3 1 0 0 0 e q 5 & > = * @ % O < s P P P D G ( G z % & 8 3.Y w w G < < e s 0 = + # # 5 < 1 e e e 0 2 q , * ",
"* * * - % $ $ 7 A G >.3.%.0 3 = < = 7 7 5 < < 5 : o F L D P D P ( ] b 8 , $ i Y y e 7 5 + # 7 g 0 5 # > 5 ; < 1 > 7 0 L #.I g # ",
"* * - : * $ @ 2 t b [ 9.8.3.R K k d w 5 7 7 5 < # * k ! R Y D 5.>.a 6 , e % % 3 0 e e # @ = 5 L 1 < # # = 5 7 w f c #.8.2.b w % ",
": * * * * $ * w e y / 5.8.8...b p s e 0 5 5 < # @ w L L 4.6.;.~ G 7 = = e % % $ @ * = + % = 0 l = & & & # 7 7 w 7 y L 5.2.b y 3 ",
"* * * * * @ : y e k R 8.7.] b e w 0 e q 7 5 < = * s -.g s ..9.( t < % < y % : % $ @ # = + # 5 7 < # = # # 5 7 0 7 y e Z ..u 0 * ",
"* * * * $ @ < w e k Q 8.] b e e 0 7 0 7 7 7 < O w ~ 7.L e C -.w < & = = 0 3 o @ $ $ @ = = 5 5 e 7 % & # + 5 < 0 w 0 0 ; ; + @ % ",
"* * : * $ $ O * 1 0 m ~ c e e e 7 0 7 0 5 7 : o e V 7./ e C F 7 < = & & 7 0 O # * * $ o * * 7 9 < * + O O # + + # % % $ * $ * * ",
"* * * * * $ $ @ $ O % ; , 3 q w e w w 5 5 7 < + e y R b e s 5 < , # & = < 7 o @ * * * * @ @ @ @ $ $ * % $ $ $ $ $ % * @ * * * * ",
"* : - * * - * % $ $ $ $ $ % % % * = + @ # : % = 7 e w 0 5 w 7 = = + # # * @ @ $ - * * * * * * $ * * * * * * % * - * * * * * * * ",
"* * * * * * * * % * $ * * % % $ $ $ $ + O + O O # , # # = * ; * # # # + # @ $ * * * * * * * * * * % * * * % * * * * * * * * - * ",
"* * - * * * * % * * * * % $ * $ $ $ $ $ $ $ O @ O + O + @ + + o O o # + @ $ * $ * * * * * * - * % * * * * * * * * * * * * * * * ",
"* * * : * % % * * - * * - * * - % % * % * * - * % = * * * * $ $ $ $ $ * * * * * * * * * * * - * * * * $ * * * * * * * * * % * * ",
"* * * * * * * * * * * * * * * * * : % % $ * * * * * * - * * * * * - * * * $ * * * * * * * * * * * * * % * * * * * * * * * @ * * ",
": * * * * * * * * * * * * - = * * - * * % * * - * * * - * * - * * * * * * * * * * * * * * * * * * * * * * ; * - * * * * * * * * "
};
