/* XPM */
static char *aki26_jdayd[] = {
/* columns rows colors chars-per-pixel */
"32 32 3 1 ",
"  c #242321",
". c #272624",
"X c #2A2225",
/* pixels */
"...... ............... . ...... ",
".....   . ......  .......   ....",
"......   .....    ..............",
"   ...   ....    .. ............",
"   ...   ....   ................",
"    ............ .........  ....",
".........................  .....",
"........ ..............    .....",
"........ .............    ......",
"  .............. ....   ........",
"   .. ........   ...  ......... ",
"   .........     .........  ... ",
"....... ....    ..........   ...",
".......X....   ............   ..",
"............  ....  ..  ...    .",
"........  ......................",
"........   .....................",
" .........   ...................",
"..  .... ..  ...... ............",
"..  X... ............   ....... ",
"... ................    ....... ",
"......XX..........     .. ..... ",
"......XX .......     ...   ... .",
"...............  X .............",
"................................",
".   .................  .........",
"...     .............  .. ......",
"....    ...........    ..  .....",
" ......  ....  ....  .....  ....",
" ............   ..........   ...",
".......  ....    ...... ...  ...",
"..............   .....   ..   .."
};
