/* XPM */
static char *ab7d5484b8944ca6f5a58ee107bb867aaRzS09P518eu3M0H[] = {
/* columns rows colors chars-per-pixel */
"64 64 55 1 ",
"  c #0B0A09",
". c #110F0E",
"X c #12100E",
"o c #151412",
"O c #191613",
"+ c #161915",
"@ c #1D1A16",
"# c #1D1C1A",
"$ c #201C17",
"% c #221E19",
"& c #182A17",
"* c #17271A",
"= c #1C211B",
"- c #1C3A1A",
"; c #2C220F",
": c #262017",
"> c #2B2415",
", c #24211C",
"< c #2A241D",
"1 c #332A1D",
"2 c #1A3A20",
"3 c #252524",
"4 c #292621",
"5 c #2F2821",
"6 c #302623",
"7 c #322B23",
"8 c #382F27",
"9 c #373027",
"0 c #393127",
"q c #3C332A",
"w c #40372C",
"e c #43392E",
"r c #483D2E",
"t c #463C31",
"y c #493F32",
"u c #1C4919",
"i c #1D5E19",
"p c #4D4235",
"a c #504537",
"s c #524738",
"d c #564A3A",
"f c #594E3D",
"g c #5D503F",
"h c #5F5240",
"j c #605341",
"k c #655847",
"l c #6A5D4A",
"z c #6E604C",
"x c #72644F",
"c c #6D6150",
"v c #726451",
"b c #7A6B55",
"n c #796E5B",
"m c #458042",
"M c #479E42",
/* pixels */
"333333933333333333##333Ooo##333333##3333333#3333333333#333333333",
"333333333333333333333333###3333333##O#333333333#3333333333333333",
"3333333333333333333333333#3333333#33###3#33333333333333333333333",
"=33333333333333333#333333333333##33333#33333##+#3333333333333333",
"3333333333333333#OO#333=3333###3333333333333%ooo##33333333333333",
"3333333333333333#oOO#333333#OOO####333333333#####333333333333333",
"333333333333333=#O#+##33333##OOOo##333#3333,#,#3333333333333333=",
"33333333333333==##O++#=333333#3OOO##333###+##,#33333333333333333",
"3333333333###@%,##$OO#33333333%33#%#,,%$##$$%,333333333333333333",
"333333333###6,,$#OO$#,#,333333#%#33#%%#3<<<%%3333333333333333333",
"33333363##33%$@@@$%##,,%@#33%%<76#####%%%$$%33333333333333333333",
"3333933333o#$$$,%<<%%777,,%,577q6o@6<5,#$%<433333333333333333333",
"333333333%66%<<6$:75%7e087880qpqO#6677676678,,333333333333333333",
"3333333366q66666,,775@0ptwppfaq$O668767777qe<#%%3333333333333333",
"333333334>ty88867778qq@4ryq5$@@<8w8677778sp<O,<,3+33##3333333333",
"3333333,34>wsyyyttypa8:$@%%%@OoX6wsyy888dq%XX7:53333++=333333q33",
"33#,3333333$1rfffdja7oO%:,<<oOOOO%7aayew5O  60773383oXXo%,333333",
"33$###%%<333,$:,,,$o. X@#@@@@$$$Oo@%<:%$oX O<ewwq33#$$@O@##33333",
"333#$$#@%%%%%@OO@@Oo.  O,:@%5<,7<o<87<%%@ XO@%<<#oo#$$OO$%$$3333",
"33##<4%<<%#%%7<<<%$$$oO777777%$776o8yq00876<:%@Oooo36%%%%%%$3363",
"33%@@@@$:<7777:%771<<%$wq77777<7777.8pfat%o. @@@o.  O#$$$%%%%,33",
"34%,%776%$67<5777%578<o%tfqqqqqqqap<@o$$OOX  .XX##$@$$$$,$%@%333",
"44<e888<%<77%<8885881.o$,7ffffagda<O..OOXO@OX<$$3666666677754,33",
"4><rdfdyyywwqqqwttdwo  oOo10qrfdq%O.XX   XO@O5<<63,66%%877777744",
"3<:@0rppr0<<,OO@5pq%   . o$$%$,$X...       o<75%77,:7570epapy8<<",
"4,#@$,9ppprqq07:$,%O     .X$$OXOX          X0e8677777eeaw7081:><",
"3,<:<:,,%@@OOooo@.oo      .XXX              o%sptdpddar$$O%:<,<3",
"<49eeee7<4: $@ooo.         .                 X<esdfgdq$@@0eeq7,,",
"4>spt9OXO  o@O@O                              .OO<qq<$>79sq:we<<",
"<>q1,+OOo  o%:6o                                OO<qqtssq,@@<5><",
"<><:O@O$5745<%%.                                .O@%<<<:=,,<:<<<",
"<<,=O<<aspyq$@o                                  .,@51779p97@,<<",
"4<$@ 0xljfdfeO                                    @Xqeyp77:%@@<,",
"44OoX1,fffjldo                 *+                 @O%%$$@O$7%@,3",
"34@o55$%:paa6.                *uM*                O,5,@weqwe7o33",
"33O%7%@%%8y7O.               **uMM*               .<80slxw7<:O:3",
",3X %@@%6<qOo.              *uuumMM*             .X$@78qq7::@@33",
"33@OO6,$7%<oo$             +uuuumMMm+            .OO@O$774#@oo44",
"33$X@<%#5:,OoO             **uuuiMMmi&           .O@@OO$@@@@.O33",
"4,@ OOOO@$,5$.            *um*u2iMMmi+           Xqeeq80qOO<@O33",
"33o  oOo..ooo.            *uM*u2iMMmi*           pfdddsppq@,$o43",
"44o  o%,4<<@.             *iMM*2imMmi*          .testqw0q9...O,3",
"435,@5qey444o    XX.   o *uiMM*iimMmioX.        @p:t7<p$47$<,<,3",
"449qppp7@$@#.  .    *   X*uimMM*immi*+.&o.       5%8@$%@@o%typ33",
"<<dfe5<Ooo3o   ... *m* o*uiimmm*immi*.&m*        o.$@@@XXO@<ds<,",
"<:r0:#<qthsy+ ..o  *mM* *ui2uMMm*mmu&+&mM*.X++. o%7q77,,@$O$$y>>",
":;$<<,tghphh=. o. *umM* *uu2uMMm*miuo&umM&X+..  O6wyq9qr55$$O$;<",
">>Xo,7hghhhhy.    *umM*+*u22uiMm.miuo&umM&    .=8yaapapdppq<@7<1",
"4<Oo@,pvvbbxpO  oo*uim**u222uimmX2iuo*uik&+   <pfjfjhhfjhaaqO%<4",
"34<@@@<qpjck,@  .*u2iii*u2u2uiim&k*u&u-iii&  #lzljafjjlljjp$O@<<",
"4399<@O<tpee:%O  *u2uiiou2u2uim*mmM*&u-uii&  :tpflvnnlaw877@oo44",
"4,7pr5@@q9<<,7O  *u2uuiou222uim*iMM*&u-uii&= O7eqpyypp86$<$@@O44",
"<<5,=OOO77<a<7X .o22222o22222u*iiMM&o22-uu.X .@98yy76<<<,7:@@@43",
"4>1,OXOX.O<y7: ==oo222oo22222*uuimM&oo--u =*==@@<qp8%5<<$,@O@@,3",
"<<,:X.O+o.O%<   *=#+o*==oo**2*2uiim+==ooo*=== @o$7q%%<<%@OO@+o<4",
"<<  ..:5,@O#% oo.o========oo+*2uuiu2o=++. +o= .o<<@%<$@ XOO@@+44",
",<+ X O<7<<<%     ++o+#+o*==O*222uu2o+==*333=+.o$,@<@@X O$#o X44",
",,,==*.@77OX   +++#=#+++====oO**222o====333==*+oX+oXXX+@XXX+=#43",
"33333==OO     ==##3==333333==oo=*.*==333333333=# X.++======*==3,",
"333,===+Xoo+====3==3==333333333=***3433333733=========3====,43=3",
"33333,=*==*3333333337333343453433633333637333<<3=3,3333*==*33343",
"3443433333333333733333333344334433333333333333334433443=,3344444",
"334<444433,,44443337333733333333333733333333334434433,4433343433",
"333334443333333433333333443333333333333734344434333333334,444333"
};
