/* XPM */
static char *_13c5c509bf04d6aaa36220cb68e08ady5fveku8pmcZk7Ck[] = {
/* columns rows colors chars-per-pixel */
"64 64 56 1 ",
"  c #242321",
". c #242322",
"X c #262323",
"o c #262523",
"O c #272424",
"+ c #272624",
"@ c #292325",
"# c #2A2225",
"$ c #282424",
"% c #282524",
"& c #292529",
"* c #2A262A",
"= c #2B262B",
"- c #2D2530",
"; c #2E2631",
": c #2F2732",
"> c #332739",
", c #372840",
"< c #3A304B",
"1 c #3D3957",
"2 c #443951",
"3 c #413954",
"4 c #64224A",
"5 c #6F2549",
"6 c #7B2748",
"7 c #47415D",
"8 c #4B415A",
"9 c #4C485E",
"0 c #524A63",
"q c #5C5863",
"w c #5D5964",
"e c #54576A",
"r c #62687B",
"t c #636F7F",
"y c #911D55",
"u c #A82153",
"i c #BF2651",
"p c #B24167",
"a c #BB607C",
"s c #D2647A",
"d c #6F7081",
"f c #6A7888",
"g c #707180",
"h c #7D7D8C",
"j c #728794",
"k c #8B8A96",
"l c #8C9FAB",
"z c #8DA0AA",
"x c #9AA2AB",
"c c #99A1AC",
"v c #E6A3A3",
"b c #A7B8C2",
"n c #A8B9C1",
"m c #A8BAC0",
"M c #C3D2D7",
"N c #DFEDED",
/* pixels */
"@$++    +O+++++++OO++++  ++   ++++++   +O+++++ +++++   + +++++++",
"@$+++   OO++Oo++ + + +  + ++  O++++ ++  .O+++O + O + +.+ + ++++ ",
"++++++++++++ o++  + +++++++++ + +++++++    +++++++++ ++++ ++++++",
"++++++++++++ooo++  ++  +++++++++O+++++++++++++.++++ ++  +++ ++++",
"+++++++ +++ooo o++ + + +++++++++++++  + ++++++++++++ ++++ .+++++",
"++++++ +++++oo o++ +++ +++ +OO+++ + +  ++++++ ++++  ++ +++++++++",
"+ ++   +++oo++  +++++++++++ OO++ +++ +   +++++++++++++++++   + +",
"+     ++o++o++++++++  +++  +O+O++  ++OO+++  +++++  ++++ ++ +++ +",
"++oo ++++++++++ ++++ +++o o+++++  ++++  +++  +  + ++ +++++  +++ ",
"+OooO+o oo++++ ++++   +++ o++++++++   +++    ++++ ++++  + +++ ++",
"+o oO++  o++OO  ++++++ +++++++++ +++ +++ + ++  +.+ ++ ++++++++++",
"oo oo++  o++o  $ +++++++++++++++++ ++ ++++++++++ +++.  +++ +++++",
"o+oo o+ o+++o o+++++++++++++o$+++++ +++++  ++ +++ +++ ++++++++++",
"+oooo+++o+++++++++++++++++oo o++++++++++++ ++++++& ++++ ++OO +++",
" ooo++++ +++++++++ + O$+=:: oo++++=:-++++   ++++++OO +++++++  + ",
"o oo++++++++++ +++  +.$$:,>oo++++ -,,+++++ + ++++OOO++++++ +++++",
"oo  o+o+O++ooooooooooooo>>,@#@$+$o-,,+++OO+++++++++ ++  +++++ ++",
"oooo o+ooO+o ooooo+++o,,kNN,,:$$,,kNN,,:OO,,-++++ +++++++ + +++ ",
"+++++++++ooo ooo+++o++,,kNN,,:$$,,kNN,,:++,,-+++++O+++ ++++++++ ",
"++++++++oooo oooo--=++,,gnbkkw::kkcnn,,>:-kkq--+++++ +++   +++++",
"++++++++oooo+++++,,:++,,ejjNNk,,NNmjj,,,,,NNk,,o ++++   +++++++ ",
"+ooooo++ooo +++$+,,-++,,ehjNNk,,NNmjj,,,,,NNk,,o++++++ + + +++++",
"++oo  ++oo++++:,,NNk,,NNk,,bbd,,bbzjj,,kNNjje,>+  +++ ++++ +++++",
"++OOO ++++++++:,,NNk,,NNk,,bbd,,bbzjj,,kNNjje,,++++++++ + +&++++",
"++++o++OOO++++-,,bmd,,MMj,,bbd,,bbzjj,,hMMeedkk--+ ++++++  +++ +",
"o+++oo+OOO++++-,,jje,,bbf>>bbg,,bbzjj,,dbb,,kNN,,-++++++++++ + +",
"oo+ooooo++++++:,>jje,,bbr,2bbr,,bbzjj,,dbb,,kNN,,-+++++++++ ++++",
"oo+o oooO+++$$:,,NNk,,bbd,>NNNNNNNNNN,,dbb,,ejj,,-++++++++++    ",
"oooo+ooo+o++++:,,NNk,,bbd2>NNNNNNNNNN,,dbb<,ejj,,:=+++++++++++++",
"oooo+oooo+++oo-,,MMcggbbckkMMMMMMMMMMkkcbbeefjj,,:+++O+++ ++++++",
"++oo+++oo+++  =,,bbbbbbbMNNbbbbbbbbbbNNMbbjjjjj,,- +OO + + O++O+",
"o+oo++++o+++o -,,bbbbbbbMNNbbbbbbbbbbNNMbcjjjjj,,- + +++ +++++O+",
"++O++  ++ +++  ++,,dbbNNMbbjjjjjjjjjjjjbNN,,,,,+++++ooooo+++++o+",
" +O+++++ + ++++++,,dbbNNMbbjjjjjjjjjjjjbNN,,,,,++o++++ooo+oo+oo+",
"++++ ++ +++++++ +--9ddMMbzzjjdeeeeeeejjzbm,,>::+ooo++++ooooooooo",
"++ ++++++ +++ + +++:,,bbzjjjje,,,,,,,jjjjj,,:+++oo+++oooo  o++oo",
"++ +++  ++++ + ++++-,,bbzjjjje,,,,,,,jjjjj,,-oo+oo++++oo+oooo++o",
"+ +  +++++++O+  +++:,,jjjjj,,6iivvsii,,ejj,,-oooo+++oo+++oo+o+oo",
"+ +  +++ +++++OO+++:,,jjjjj,,6iivvsii,,ejj,,:+ooooo+ooooOO++++oo",
"++++++ +++++++OO+++:,,rrfjj,,5uuaapuu,,9rr,>:+o oo++oOoOOO+++++o",
"+++++O++ ++++ +++++-,,00rjj,,4yyyyyyy,,200,,-++o++OO++oo++Oooo++",
"++++++ O++  +++++++-,,00rjj,,4yyyyyyy,,200,,-++OO+OO+oooO+Ooooo+",
"  +++++++ ++  +++++:,,11700002,,,,,,,00711,,-+ o++oOoooo+++o+ooo",
"+++  ++  +  +++++++:,,11700002,,,,,,,00711,,-+++++++ooooO+O++ooo",
"  ++++OO++++++++++O&-:<<3770083333222773<<::=+++++++ooo+oo o++oo",
"  ++OO++++ +O+++++++++,,<11000000000031<,,+++++o++++oooooo  o+oo",
"  ++++O+++++ ++++++  O,,<11000000000011<,,+++++o++++++++oo  o+o+",
"++++++O+++++++ O+++   ++:,,,,>,,>,,,,,,:++++++++o+++ooo+++o oo+o",
"++ ++++ +++++++ +++++++ -,,,,,,,,,,,,,,-+++++ ooo+++oo +++++oo++",
"++ +++++++++    +++++ ++=::::-::::::::-=++++O=O+++++oooo++++++++",
"+++++++ +++++ +++++++ ++++$++ ++++++$++++ + OO+++++o+o+++++oo+++",
"++  +++++++++++ +++ +++ +++++.++++++++++++++++++++oo++++++ooo+++",
"++ +++OO++++ +++++++oooo+++. O++++++++++   +oooo++oooo++++o  ooo",
"++++++O +++ +O++++++ o+o++& +O++++++++++    ooooo+o oo+o+++ o oo",
" +   ++ ++++ + +++ + +oo+ ++O+++++++++++OO+ oooo++ooooo++++++oo+",
"++++ +++++ +++ + +++   o+++ OO++++++++++ ++ o  +++oo oo+++++++++",
"+++ +++++++++++ oooooo oo++++++++++ooooo  oooooo++++  +++ooo++++",
"+ ++ ++++++++ ++oooooo oo++++++++++o ooo ooooo++++++O++++o+O++++",
"+  +++++++++++++o+ oo+oooo++++oO++++  ooooo+o+++++++O++++ooO  ++",
"+  +++++++++++++oo oo+o++o++++ooo+++ooooooooo++++++++++++oo  +++",
"+  ++++++++++ +Ooooo++++++++oo o++++oooo+++ooo+o+ooo+++++oo  +o ",
"    ++++++++++ +  oo++++++++oo o++++ooo+oooooo+ooooo+++++ooo+++ ",
"  +  +++++++++++o  o++++++++ooo+++++++oooo o o++o  o++++++++++o ",
"  ++++++ +++++O oo o+++o+++++o+++oo+++Oooo o+O+o o++ooo+++o+++OO"
};
