/* XPM */
static char *_5f602aa5e774314bc4056cb41cad2a3XJg9yCcbcT2yzS0c[] = {
/* columns rows colors chars-per-pixel */
"64 64 186 2 ",
"   c #262523",
".  c #292425",
"X  c #2C262D",
"o  c #2F2731",
"O  c #312735",
"+  c #392734",
"@  c #34273B",
"#  c #35283C",
"$  c #3D2A3F",
"%  c #37313B",
"&  c #39333A",
"*  c #46273E",
"=  c #422A3F",
"-  c #492C3F",
";  c #542F3E",
":  c #5A303E",
">  c #66333D",
",  c #372840",
"<  c #392B44",
"1  c #392E48",
"2  c #3C3543",
"3  c #3B324D",
"4  c #3B3652",
"5  c #3D3957",
"6  c #422742",
"7  c #4D2545",
"8  c #422B43",
"9  c #482842",
"0  c #572745",
"q  c #592844",
"w  c #5A2448",
"e  c #483649",
"r  c #4B354C",
"t  c #443C4A",
"y  c #553445",
"u  c #5C3442",
"i  c #52364A",
"p  c #53394A",
"a  c #473557",
"s  c #443951",
"d  c #4B3D52",
"f  c #6D2747",
"g  c #64224A",
"h  c #6E214C",
"j  c #752C45",
"k  c #72224D",
"l  c #7B244C",
"z  c #7B2849",
"x  c #623440",
"c  c #6B3040",
"v  c #693D48",
"b  c #7D354A",
"n  c #672B56",
"m  c #7A2050",
"M  c #7A2D53",
"N  c #6C3350",
"B  c #6B3E55",
"V  c #57404E",
"C  c #4C4156",
"Z  c #4D4A5C",
"A  c #5B4A56",
"S  c #564C59",
"D  c #654E57",
"F  c #694853",
"G  c #754A53",
"H  c #76545E",
"J  c #4A4B65",
"K  c #534C60",
"L  c #565567",
"P  c #575972",
"I  c #615562",
"U  c #6C5C64",
"Y  c #64596A",
"T  c #625E70",
"R  c #6C5F73",
"E  c #5C6374",
"W  c #76676C",
"Q  c #6A6979",
"!  c #6C6B7B",
"~  c #766871",
"^  c #7F7177",
"/  c #7C717D",
"(  c #861F52",
")  c #911D55",
"_  c #9C1F54",
"`  c #82254D",
"'  c #8B264A",
"]  c #95264B",
"[  c #9D2B49",
"{  c #892154",
"}  c #9E2B52",
"|  c #843252",
" . c #AE264F",
".. c #A52352",
"X. c #AA2253",
"o. c #B32452",
"O. c #BF2651",
"+. c #C73456",
"@. c #85485B",
"#. c #835D68",
"$. c #9E4C77",
"%. c #AA456E",
"&. c #A4517B",
"*. c #846169",
"=. c #8F7873",
"-. c #887678",
";. c #927C7A",
":. c #F54F4F",
">. c #EB5C5D",
",. c #DF7173",
"<. c #F26262",
"1. c #E97172",
"2. c #9C867C",
"3. c #776F83",
"4. c #6C7988",
"5. c #757281",
"6. c #787785",
"7. c #A15F85",
"8. c #9C6A8B",
"9. c #877982",
"0. c #93748B",
"q. c #997E98",
"w. c #7E818F",
"e. c #728794",
"r. c #7D8291",
"t. c #798D99",
"y. c #7F939F",
"u. c #888794",
"i. c #8B8A96",
"p. c #908D93",
"a. c #A38E82",
"s. c #A09392",
"d. c #B19D90",
"f. c #B5A08D",
"g. c #B9A799",
"h. c #8B94A1",
"j. c #9098A3",
"k. c #9499A4",
"l. c #A193A6",
"z. c #9BA3AD",
"x. c #93A5B1",
"c. c #99A6B2",
"v. c #9AA9B5",
"b. c #B9ADA5",
"n. c #B6ACA8",
"m. c #AAA5B4",
"M. c #A3AEB6",
"N. c #AAAFB5",
"B. c #B1ABB4",
"V. c #A1B2BC",
"C. c #ACB5BC",
"Z. c #C28097",
"A. c #C2AF9A",
"S. c #C7B198",
"D. c #CDB9A2",
"F. c #C6B7A8",
"G. c #D0BEA8",
"H. c #CABDB3",
"J. c #C8B6BA",
"K. c #C3BEBC",
"L. c #D2B8BA",
"P. c #D3C2AD",
"I. c #CEC0B0",
"U. c #D6C6B3",
"Y. c #D9CBB9",
"T. c #A7B8C2",
"R. c #ADBEC5",
"E. c #B5BBC1",
"W. c #B3C5CA",
"Q. c #B9C4CA",
"!. c #BACED4",
"~. c #BCD0D4",
"^. c #D3CBC4",
"/. c #DFD3C3",
"(. c #D9D3CE",
"). c #CAD4D7",
"_. c #C2D6DA",
"`. c #C6DBDE",
"'. c #C9DADD",
"]. c #DBD4D9",
"[. c #E3D9CB",
"{. c #EBE5DA",
"}. c #CBDDE0",
"|. c #D3E3E5",
" X c #DDECEC",
".X c #F0ECE2",
/* pixels */
". .                                                           .     . # , . .                                                   ",
". .         O # X .                                     X , # , , # , ). XC # X           .                                     ",
"    .       # , X . .                                     , , , , , , ). XC , X                                                 ",
"        # # N.).S @ X .       .                       o *  .X.).). . .]. XC # X   .                                             ",
"    .   # , E. XY < o                               X # 9 O.O. X XO.+.]. XC , X . .                                             ",
"    # # M.W.,.<.J.R.T @ X                     . . , s c.c.m.m.R.T.m.m.1.<.l.c.C @ .                                             ",
"    # , W.`.1.:.L.`.Q , o                       . , 5 T.T.T.T.T.T.T.T.>.:.B.T.K , X                                             ",
"# # h.h.7.$.+.+.%.$.9.h.L O .                   X , 1 P P P P P P P P B F P P 3 @ .                                             ",
", # T.T.} ) o.+._ ) q.T.T , o . .               X , , 5 5 5 5 5 a 5 5 5 5 5 5 1 , X                                             ",
"X X K K q.l.@.z 0.l.3.K $ X .                   X , < } } } } J.K.n.b.C.K.n.n.S , X                                             ",
".   , , x.T.H > k.T.T , .                       X @ 9 O.O.O.O..X.X/.[..X.X[./.I , X         .                                   ",
"    X X L P u.u.R T 2 o                         X , 9 O.O.O.O./ / ~ ~ /.[.-.~ d , .         . .                                 ",
"        # , h.T.K , X                           X , 7 O.O.O.O.@ # , , H./.d < , , X                                             ",
"        # , h.T.K , X           . .             X @ 7 +.+.O.O.s.s.s.s.W ~ s.s.r , X                       .                     ",
"        # , h.T.K , o   .       . .         . . X , 6 O.O.O.O.[./././.d , H./.I , .                                             ",
"        @ , Y 4.s , o           . . . X X X o o O @ * O.O.O.O.G.G.[./.d , A.G.I , .             .                               ",
"        @ , , , # , o               X , , , , , , , 9 O.O.O.O.A.S.[.[.d , f.S.A , X                                             ",
"        @ , ~ 9.d , X         . . X S i.i.i.i.i.5., 9 O.O.O.+.=.=.P.G.=.*.=.=.d , O o o o X               .           . o X     ",
"        @ , b./.D # X           o , 5. X X X X XE., 9 O.O.O.O.V p S.S.S.S.D V 8 , , # # $ X             .             . , @   . ",
"    . X Y ~ g.U.p.~ t X     . X C 3.z.|.|.'.'.'.Q.! R ' ] O.O.b | 2.2.2.2.F N 8 # Q Q Q Q C X X         . . X X     X % / ~ X X ",
". . , , H./.S.S.Y./.~ , X . o , i. X|.`._.T.T.T.R.`.W., * O.O.+.O.V V V p { ] 7 # M.`.`.`.! , o           o # @   X < d .X(.@ , ",
". . , , F.U.U.G.P.U.W # O X S 5.N.|.}.!.M.9.r.r.u.j.i.< * [ [ [ [ N N N N ` ` q 9 6.j.R.!.h.! C X .   . o t / U X t / 9.{.^., , ",
"    , , f.S.Y.[.D.S.U , , , i. X|.`.!.T.r., < < , , , , # > > > > ) ) ) ) > > > > = # r.T.!.`.w., o . X , / .XC.# Y .X{./.H., , ",
"    , , f.D.U.U.P.D.U , , , 5.E.T.M.c.h.Q 7 6 , , = 8 Y Y *.*.W *.&.&.&.$.#.#.F > 0 7 3.h.z.M.! , o   X , / {.K.A ^ {.{.Y.F., , ",
"    < , H./.D.S.Y./.~ , , , , , , , , , 0 ) m # 8 > G  X X X X X X X X X X}.`.W > { ) w # # , , , o   X @ ~ /.Y.S.D././.S.f., , ",
"    , , F.Y.d.a.G.Y.R , @ O # , 7 0 q 0 h m h * p *.0. X X X X X|. X|. X X`.'.-.H M m w q 7 , @ O X   X , W Y.Y.D.G.Y.U.a.=.@ @ ",
"    , , f.S.A , a.S.U # o . o , l O.+.O.' , * > *. X X X X~.`.`.`.`.`.`.`.`.'.W.T.K , ' O.f , o       o , U S.D./.Y.S.f., @     ",
"    # # a.f.U s ;.f.U d # . + 7 ` O.O.o.' # < > *. X X X X~.~.~.~.~.~.~.~.~.!.R.T.K , ' o.f 9 +     . % d U f.S.Y.I.f.a.@ o     ",
"        # # h.T.S , j.`.! , l +.O.O.X.) h @ $ > *. X X_.~.e.e.e.e.e.e.e.e.e.e.v.T.K , k ) X.+.l , , , Q `.j.# A S.a., #         ",
"        # , h.T.K , j._.5.d { O.O.O.X.) k @ * > *. X X).W.t.t.t.t.t.t.t.t.t.t.x.T.S # h ( ..o.l 6 e s 3.~.x.s S f.2.# # .     . ",
"        # , h.T.K , r.T.!.`.d.O.X.) ) ) k , 6 > *. X|.e.t.T.T.T.T.T.T.T.T.T.T.y.e.F > 9 , k ) X.O.Z.`.!.T.T.T.h., O         .   ",
"        # , h.T.K , r.T.!.`.Z.O.X.) ) ) h , * > *. X|.e.t.C.T.T.T.T.T.T.T.T.T.y.e.F > * , k ) ..O.Z.`.!.T.T.T.h., @         .   ",
"        # , h.T.K , , , w.T.8.) ) ) ` > y , = > F e.t.T.V.e.e.e.e.e.e.e.e.e.e.e.e.F > - $ ; > z ) 8.T.T.T.r., @                 ",
"    .   # , h.T.K , , , r.T.8.) ) ) ` > ; # = > F e.t.T.V.e.e.e.e.e.e.e.e.e.e.e.e.F > 9 , ; > z ) 8.T.T.T.r., @                 ",
"        # , h.T.K , X . O , - > > > > > ; # = > u 5 J T.c.5 5 5 5 5 5 5 5 4.e.J 5 u > - , ; > > x -.T.r., O                     ",
"    .   # , h.T.K , X . O , y > > > > > ; , * > u 5 J T.v.5 5 5 5 5 5 5 5 e.e.J 5 u > = , ; > > > 9.T.r.# O                     ",
"        # , h.T.K , o       o # e 5 e , - > : > > > u t d > x u x { { c u v v 8 , u > - , 3 s 4 s a s % X                       ",
"        # , h.T.K , X       o , 1 5 3 , - > > > > > u , , > > > > ) ) > > > > 8 , : > - , 3 5 5 5 3 , o                         ",
"        # , h.T.K < o       . X @ < < , - > > > > 6 * : : = * { { c j ` { 9 = $ , : > - # 1 1 1 < O X X                         ",
"        # , h.T.K # o     .   . o , , , = > > > : # < > > , , ) ) > > { { 8 , # , : > - , , , , , o .           . .             ",
"        # , h.T.K , o           . X O , 9 > > > : , < > > m m 7 7 > > 0 7 k m 7 , : > 9 , , , O .                     . .       ",
"        # < h.T.K , X       .   . . X , - > > > : , = > > ) ) # , > > $ , ( ) 7 , : > = , , , o                       .         ",
"        # , h.T.S , X               X , 1 p e - q h k ` ` j j ; ; 9 - h k j j 9 , e p 1 , O X X                                 ",
"        # , h.T.J , X .       .   . X , 3 5 4 # 7 ) ) ) ) > > > > , # { ) c > = , 4 5 1 # X                                     ",
"        # , h.T.K , X               o , 8 y y # = j j j j > > 9 - h k w w > > = , y y 9 # o     . .   .                         ",
"        # , h.T.K , X               X , = > : , = > > > > > > , , { ) 6 , > > * # ; > 9 , X     .                               ",
"        # , h.T.K , o .             X , 8 i e # < i p i i z l g g g g g g i r < , r i 8 , o                                     ",
"    .   # , h.T.S 2 X .       X     X , 1 5 4 , 1 5 5 5 a ) ) ) ) , , { ) a 5 < , 4 5 < , X                                     ",
"        # , h.T.K , X .             X , 3 5 4 # 8 n n n n g g g g , , w g n n 6 , 4 5 1 @ o       .   .                         ",
"        # , h.T.K , X               X , 1 5 4 , 7 ) ) ) ( , , , , , , , , ( ) 7 , 4 5 1 , o                                     ",
"        # , h.T.K , o .           . o , 1 3 3 , 6 h h h h , , < 1 , , < 1 h g 9 , 1 3 < , o         .                           ",
"        # , h.T.K , o .           . o , # , , , , , , , , , , 5 5 , , 5 5 < , , , , , , , o                                     ",
"        O # h.T.J , o           . o o , < 1 < , < 1 1 , , 1 < 4 4 < 1 4 3 , , 1 1 , , , , o                                     ",
"        @ , h.T.K , X           o , , , 1 5 4 # 1 5 4 , < 5 5 , , 5 5 , , , , 4 5 < , , # o                                     ",
"        @ , h.T.K , X           o , < < 1 4 3 1 1 4 1 < 1 4 4 < < 4 4 < < , , 3 4 1 < < , o                                     ",
"        # , h.T.K ,             o , 1 4 4 , < 5 4 , < 5 4 , , 5 5 , , 5 5 < , , , 4 5 1 , .     X                 X             ",
".       # , h.T.K , X           O # 1 4 3 , 1 4 3 , < 5 5 , , 5 5 , , 4 5 < , < , 4 4 1 @ X                                     ",
".       # , h.T.K , X   .       O , , , 3 5 4 , , , < 5 4 , , 5 5 , , 5 5 , , 4 5 1 # , , o               X                     ",
"        # , h.T.K , o .         O # , , 1 5 4 , , , , 5 5 , , 5 5 , , 4 5 < , 3 5 1 , # , o . .                                 ",
"        # , h.T.K , X .         O , 1 5 3 # < 5 4 , , 5 4 , , 5 5 , , 4 5 , , , , 4 5 1 , , , o     X                           ",
"        # , h.T.L , o           X , 1 5 s s 3 4 4 , 1 4 4 , , 5 5 < , 4 5 1 , , , 4 4 4 4 2 , O &         X                     ",
"        # , h.T.S < X     .     O , # , T T.h., 1 5 4 , < 5 5 , , 5 5 , , 4 5 1 , , # E e.Z , , & X                             ",
"        # , h.T.J # o           O # , , P T.h., < 5 5 , , 5 5 , , 5 5 , , 4 5 1 , , $ E e.Z , , # o                             ",
"        # , h.T.K # o           O # P T.u., J T.h., , , , , , , , , , , , , , , , ! e.J , E e.e.e.L & X                         "
};
