/* XPM */
static char *result[] = {
/* columns rows colors chars-per-pixel */
"64 64 27 1 ",
"  c #242321",
". c #252321",
"X c #252222",
"o c #242322",
"O c #252322",
"+ c #262322",
"@ c #262323",
"# c #272323",
"$ c #252422",
"% c #252423",
"& c #262423",
"* c #272423",
"= c #262523",
"- c #272523",
"; c #272424",
": c #272524",
"> c #272624",
", c #282423",
"< c #292224",
"1 c #282324",
"2 c #292324",
"3 c #292325",
"4 c #2A2225",
"5 c #2A2325",
"6 c #282424",
"7 c #292424",
"8 c #282524",
/* pixels */
"38>>oO@$=>>>>>>>=>>>>=$o%>>$O*>>>==>=$$=>>>>>=$=>>>=  o==>>>>>==",
"<8>>>o o=>>>==>>$==>=$ $>>>>o =>>>===o $=>>>>:O$>>>  o>>$=>>>>=o",
"$>>>>>==>>>>  >>$ $>= ==>>>>>$ ==>>>>>=  $=>>:O$>>= $>>>> =>>>>>",
"=>>>>>>>>>>>$ %>=o$=>$%>>>>>>>>>&>>>>>>>&1o=>>>>>>>>>>==>o=>>>>>",
">>>>>>==>>>=>$ >>> %>$ >>>>>>>>>>>>>$$$>>>>>>>$>>>>>>> $>>>$>>>>",
">>>>>= =>>>>>$ $>>=>>> >>>>>36>>=$=>=  >>>>>>>=>>>>$>>=$>>>=>>>>",
"===>  o>>>===>$2>>>>==>>=>  26>=$ $>=oo %>>==>>>>=$$>>=>>>$ =>==",
">  $ $>>=>>==>>>>>>= $>>>$ =>>$$=  >>>>=>>= $>>>>$ =>> =>>$ $>= ",
">>=$o>>=>>>>>>>2>>=$o=>>> o=>>>>>=$>==>>>=  $=>>= $>>>==>=$ $>>$",
">>>>>>=o==>>>>==>>==o==>>$=>>>>>=>>>= ====oo %>=$o=>==>>>= $>>>>",
">$$>>>>  =>>>$ o>>>>>==>>>>>>>>>>>>$ $=  >>> %>$==>>  $=>=$>>>>>",
">$o  >>  =>>  o>=>>>>>>>>>>>>>>>>>$ o=>>>>>>=>>>>>>>=o $>>>>>>>>",
">>=  =>$$>>>$$$>>>>>>=$>>>>==>>>>=$$>>>>>==>>>>>>>>>>=o=>>>>>=>>",
"->>==>>>=>>>>>>>>>>== =>>>>= =>>>>=>>>>>>=$$$>>>>::$$>=>>>:>=>>>",
"+$=>>>>>$=>>>>>>>>=$ o=>>>8&o=>>>>>>>>>>>   =>>>>:48=>>>>>6> $==",
"$  $>>>>>>>>>>$>>>  =>>>>>4#o>>>>=$$>>>>> $=>>>=>$*:>>>>>>>>$ $>",
">=o $>&>>>>==$ >>$$=>==>>$&:=>>=>$ X$=>>11>>>>>= o$>>>$===>>= o>",
">==$$>>==>>$  $>>>>>>$ =>$=>>>>=>$$; $>>86>>>>>>==>>>>$=$$>>>==>",
">>>>>>>:6>>$ $>>>>>>>>  =>>>>>>>>$=>=$=>>>>>$$=>>>>>>>>>$$>>>>>>",
">>>>>>>>==>&o>>=o>=o>>$oo>>=o=>=$o=>>&>>>>>>oo>>>>>>=>=$o>>>=>>>",
">>>>>>>>$ =>>>>>>>>>>>>>>>>>>>> $o>>>>$>>>>>>>>=$>>>>=o$=>>>=>>=",
">>$===>>==$$=>>>=>>>>>>>>>>>>>$$>o=>>>=>>>>>$==  >>>>$o$ ==>>>>=",
">>$> $:>$==o>>>>=>==>>>>>==>>>$$>==>>==>>>>>=o oo>>>>$o=$=o:>>>>",
">>>>=$:>>>>>>>>>>$  >>>>>  >>>>=>>>>>$ >>==>=  .=>>>>>=>>>>8>>>>",
">>>>>>>41>>>>>==  o==$>>=o %>>>>>>>>=$= %>>>=o  %=o>>>>>=>===>>>",
"=>>>>>>6*>>>>= +$$>>$$>>=>$ :8>>>>>>=$$$=>>>>>$$ o=>>>>>=>$ $>=$",
" $>===>>>>>>>>=8>>==>>>>>>==>:>>>>>>>= $>>>>>>>$  =>>>>>>>&=>>$ ",
"o=>=o$===>>>>>>>>> %==>>>>=>>>>>>==>>>$>>==>::>  o=>>>>>>>>>>>oo",
">>>>>$  $>>>>>>>=$ %= >>>>>>>>>>>o>>>>>>> $>&:>===>>>>>>>>>>>>=>",
">>$=>>==$=>>$=>>=o=>>$ =>>>>===>>==>>>>$>=>>>>>>>==>>>>>==$=>>>>",
">>o=>>>=$>>>  $>>>>=>= $>>>>$ =>>= $>>>$=>>>>>>>>= =88>=  $>>>6>",
"=>=>>>>>=>>>=  >>>= $>$ =>>$ $>>>>,->>>= >>>>=$>>$ =:&>$==>>>$8>",
"$>-=>>==$ $>>>$=$ ooo=>oo=>$ $>>>>>>8:>= >>>= o>>>>>=o>==>>>>>=>",
"=>6>>=$ $ =>>>>=$$>$ $>>=>>= $>>==>>68$=$>=$$$>>==>>>>>=$>>>>=o>",
">>>>>=o=>>>>>>=>>>>>=o%>>>>>=>>>&$>>>& $>>>=>>>>$o=>>>>=$==>>$$>",
">>=>>>>>>>>>==$>>>>>>=o>>>>>$>>>>>>>>= $=>:>===>>$>>>==>$  =>>>>",
"=$o>>>>>>>>>   $>>>>>>>>>>>>>=$>>>>>>>==>>:&>$ >>>>>>>o>>== $>>=",
"o $>=$%>>>>>>o o>>>>=====>>>>= =>>>>==>>>>>>>>>>$>>>==>>>>>>>>=o",
"=$>>  %==>>>>>=#8>>>$  $$=>>>>=$>>8:= =>>>>>>>>= >>>$ >=;8>>>>>=",
">>>>==>>>>>>>>>46>>=    $>>>>>>>>=&:= $>>$=>>>> =>>>-*>>22>>>>>>",
">>>>>8=>>>===>>>>>=o$>>>>>>>>=>>>=o=>>>>>o =>>> =>:8>>>=>>:O=>>>",
">>>>>* ==>   >>>>>=%>>>>>>>>>$$>>$=>==>>>= ===$ =>65>>>$=>:O$>$>",
"$=>>>>==$=$==>>>>>>>>>>>>>>>>>$$$$>>>>>>>>$$==o=>>=-=$=$>>>=>&$>",
"o=>>=>==$==>>>>>>>>>>>>>>>>>>>>===>>>>>=>>>>>>>>>>>>>==$===>>>==",
" $>>12>=>> $$>>>>>>>>>>>>>>$$>>=  =>>>$$>>>>>>>>>>>>= =>>= =>> $",
"$ >>26>>>>=oo>>>>>===>>>>> o>>=oo$>>= o>>>>>>>>>>>>>==>>>=  =>>>",
"$ >>>>8>>>>>>>>6>>=$o$$=>>$>>>==>>>> $6>>>>>>>$=>>>>>>>>>=  $>>>",
">$$>>=$$>>>>>>=:>>>>o  $==>>>>>>>>>>=>+>>>>>=$ $=>>>>=$>>>=oo=>=",
">>o>>>=$>>>>>=$o>>>>=oo>>>>>>>>>>>>>>>>>>>>>=*%==>>>=$$>>>>>==>>",
"=>=>>>>==>>>$  =>>>>>>>>>>>>>>>>>>>>>>>>>>>$848>>>>>= >>>>>>>>>>",
"=>==>>>$=>>>$o%>>>>>>==>>>>==>>>>>>>>>>>>=>$=8>>>>>=>=>>>>>>=>>>",
">>$$>>>>>>>>>>=>>>>>=$$>>>>=o=>>>>>>>>>>=o=>>>>>>>>$>>>>>>=$$>>>",
">> $>>>>>>>>>>>>>>>=$ =>>>>$ $>>>>==>>>>$  =>>>>>>>$$>>>>>$  ===",
"=>>>>>==>>>>>>=>>>>$o=>>>>4*o>>>>>>>>>>>&oo =>=$=>$ $>>=>>>$o >>",
"$>=$$>>o>>>>>$ >>>>$o=>>>$8:=>>>>>>>>>>>>>> == $>>$ $>>>>>>>>=>>",
">>>$ >6=>>>>$ o>>>>>o$ =>o$>>>>>>>>==>>===>$$  >>>>o =>>>>>>>1>>",
">>>=$>>>>>>> o=>==>>>= $=>>>>>>>>>>$o=>= o>>oo$>>>>>o%>>>==>>>>>",
">>>>>>>>>>>>=>>>$ $$>>$  >>>>>>>>>>$ %>= o>>>>>>>>>>>>>>>==>=1>>",
"$  %>>>>>>>>>>>>>>  =>$o=>>>>>>>>>>>o =>> $>>>>>>>>>>>>>>==> o>>",
"=   =>>>>>>>>>>>>>$$=>>>>>>>>>>$=>>>= $>>$=>>>>>>>>>>>>>>==$ =>>",
"=$ $>>>>>>>>>=$1==>>>>>>>>>>$6$$>>>>>$#>>>>===>=>=$=7>>>>>= $>=$",
"  oo=>>>>>>>>>$o  ==>>>>>>>>=$ >>>>>>= >>>=$o=>=$ o>>>>>>>$ =>= ",
"  >>=>>>>>>>>>>>=   >>>>>>>>= =>>>>>>>=>>=  $>>>$ $>>>>>>>>=>>=$",
"++=>>>>$=>==>>>>>=oo>>>=>>>>>=>>>==>>>>>>=oo>>>>$$>>>&$>>>>=>>>>"
};
