/* XPM */
static char *_43967f363014322ca5d88d55ae3ea67S48rTM80pbPvWAnA[] = {
/* columns rows colors chars-per-pixel */
"64 64 16 1 ",
"  c #242321",
". c #242322",
"X c #262323",
"o c #252422",
"O c #252423",
"+ c #272624",
"@ c #292224",
"# c #292325",
"$ c #282524",
"% c #372840",
"& c #3D3957",
"* c #57404E",
"= c #524A63",
"- c #911D55",
"; c #997D76",
": c #C7B198",
/* pixels */
"++++oo+++o++++ ++X+++++ %%%%%%%%%%%%%%%%+++++++++++ +++++++++$+o",
"+++++++++o ++ +++++++++ %%%%%%%%%%%%%%%%+++++ +++++  +++++.. o++",
"++++$+#$++  X.++++++++o+%%%%%%%%%%%%%%%%++$ + ++++++++++++ . oo+",
"++++$ #$+++ .. +++oo++o+%%%%%%%%%%%%%%%% ++ . ++++++  +++  X++o+",
"+++ooo +++++++++++ .%%%%================%%%%+    +++..++ .+++++ ",
"+++   +++++++++++++.%%%%================%%%%+++X.++++++++++++++ ",
"+++ooo++++++o++++ + %%%%================%%%%.+++++++ +++++++  ++",
"+++++++++++o  ++++++%%%%================%%%% +++++++$++++ +++ ++",
"++o+++++++   +++ + +%%%%========&&&&&&&&%%%%  +++o+++++ooo++++++",
"++o++ +    o++++++++%%%%========&&&&&&&&%%%%++++o.o++++. +++ o++",
"++o+ X+++  ++ ++++++%%%%========&&&&&&&&%%%%++++oooo+++.o+++o+++",
"++o..o+++++++ ++++++%%%%========&&&&&&&&%%%%o+oo...o++ooo++o+++o",
"+++  $+ o++++..o++++%%%%====----::::----%%%%+ o+o+ o+o+o++.Xo++o",
"++++++++  o++X.o++  %%%%====----::::----%%%%$o+++++++++++oo  o++",
"+ +++++++  o+ o+++  %%%%====----::::----%%%%+++oo+++++++++++ +++",
"++++++ +++++++o+++++%%%%====----::::----%%%%++++ooo++++++o +++++",
" +.+++..++++++o+++++%%%%====;;;;%%%%;;;;%%%%++oX  o+++++#+++++++",
"  ++++ ...+++++++++o%%%%====;;;;%%%%;;;;%%%%+++ o++++++  +++++++",
"  ++$o $ X +.+++++oo%%%%====;;;;%%%%;;;;%%%%++$$+++++    $$+  ++",
"+ +++o$$+oX+o$+++   %%%%====;;;;%%%%;;;;%%%%++$$++++++++$$+++++ ",
"+++++o++++++++ ++o o%%%%====%%%%****%%%%%%%%o+++++oo++++++++++  ",
"++++++++++++++++++ +%%%%====%%%%****%%%%%%%%++++++  +++++++++. +",
"++++++++$+++++..o+++%%%%====%%%%****%%%%%%%%o+++++++++.+++++..++",
"+++o++++ + +++++oo++%%%%====%%%%****%%%%%%%%++++++o++ .o++oo.X +",
"+++o.+++.+..++ ++ ++%%%%====%%%%%%%%%%%%&&&&%%%%++o...O++++  + +",
"++$+++++++oo$$$+++++%%%%====%%%%%%%%%%%%&&&&%%%%o+oo..++++++++++",
"++++o+++++++$$$+++++%%%%====%%%%%%%%%%%%&&&&%%%%+++o..++o+++++o+",
"++  ++o+++++$$ +++++%%%%====%%%%%%%%%%%%&&&&%%%%++o...  o+++++++",
" +++ +X.+o++++++%%%%====%%%%%%%%%%%%%%%%%%%%&&&&%%%%+   o+++++++",
" +++++ +++ o+oo+%%%%====%%%%%%%%%%%%%%%%%%%%&&&&%%%%+   ++++++++",
" ++++++++++   o+%%%%====%%%%%%%%%%%%%%%%%%%%&&&&%%%%+o+o++++++++",
"++++ o++o+++ooo+%%%%====%%%%%%%%%%%%%%%%%%%%&&&&%%%%++++o++++++o",
"+++  .++ +++%%%%========%%%%%%%%%%%%%%%%%%%%&&&&%%%%++++.o+X+$o.",
" +++++ +++++%%%%========%%%%%%%%%%%%%%%%%%%%&&&&%%%%o++ooo+++ oo",
"+$++++++o+++%%%%========%%%%%%%%%%%%%%%%%%%%&&&&%%%%.+++++oo++o+",
".++++++++++o%%%%========%%%%%%%%%%%%%%%%%%%%&&&&%%%%+++o+++++$ +",
".+++  ++++++%%%%====;;;;%%%%%%%%%%%%%%%%::::&&&&%%%%+++ +++++ o+",
"o$+ ..++o$++%%%%====;;;;%%%%%%%%%%%%%%%%::::&&&&%%%% +$ +++o++oo",
"++oo++ +o+++%%%%====;;;;%%%%%%%%%%%%%%%%::::&&&&%%%%++++++++o+o+",
"++++++  o+oo%%%%====;;;;%%%%%%%%%%%%%%%%::::&&&&%%%%++ ++++o++++",
"+++++++ ++ o%%%%====%%%%::::%%%%%%%%::::%%%%&&&&%%%%+oo+++  $+++",
"+++++#++++ $%%%%====%%%%::::%%%%%%%%::::%%%%&&&&%%%%+oo+++$ $$#$",
"+++o++++++++%%%%====%%%%::::%%%%%%%%::::%%%%&&&&%%%%+oo+++$+++X$",
" + oX+++++++%%%%====%%%%::::%%%%%%%%::::%%%%&&&&%%%%o.+++#+++ +$",
"oo++$o +++++%%%%====%%%%%%%%::::%%%%%%%%%%%%&&&&%%%%oo+++o+o++++",
"+++o++ ++$++%%%%====%%%%%%%%::::%%%%%%%%%%%%&&&&%%%%+++++++o   +",
"++ +oo  $$$$%%%%====%%%%%%%%::::%%%%%%%%%%%%&&&&%%%%++++++ o++++",
"oo +++.X$ #+%%%%====%%%%%%%%::::%%%%%%%%%%%%&&&&%%%%++++++++++$ ",
"+ o++++.++++%%%%====%%%%%%%%%%%%%%%%%%%%%%%%&&&&%%%%o$+++++++++o",
"+o+++++  +++%%%%====%%%%%%%%%%%%%%%%%%%%%%%%&&&&%%%% oo+++++o+++",
"++++++++X+++%%%%====%%%%%%%%%%%%%%%%%%%%%%%%&&&&%%%%+ o++++oo+++",
"+++++ o+o+++%%%%====%%%%%%%%%%%%%%%%%%%%%%%%&&&&%%%%++++++oo++++",
"++++..+++o++%%%%====%%%%%%%%%%%%%%%%%%%%%%%%&&&&%%%%+++++++o++++",
"++++++++oo++%%%%====%%%%%%%%%%%%%%%%%%%%%%%%&&&&%%%%+++++o++++++",
"+++ +$$+.o++%%%%====%%%%%%%%%%%%%%%%%%%%%%%%&&&&%%%%+++++oo+++++",
" +++  +++o++%%%%====%%%%%%%%%%%%%%%%%%%%%%%%&&&&%%%%oo++o.o+++++",
" ++++ o++oo+%%%%%%%%%%%%%%%%%%%%%%%%%%%%%%%%&&&&%%%%.o++o.oo++++",
"+++++++++oo+%%%%%%%%%%%%%%%%%%%%%%%%%%%%%%%%&&&&%%%%.+++o..+++++",
"+++++++++oo+%%%%%%%%%%%%%%%%%%%%%%%%%%%%%%%%&&&&%%%%oo++++oo++++",
"oo++o+$o++++%%%%%%%%%%%%%%%%%%%%%%%%%%%%%%%%&&&&%%%%+++++++++++o",
"+ X+++  .o++%%%%++++%%%%%%%%o.o+%%%%++++%%%%%%%%o+++++++++++++++",
"+++++++ ..++%%%%++++%%%%%%%%++$+%%%%+oo+%%%%%%%%o++++++++++++++o",
"++++++oo.o++%%%%+++o%%%%%%%%++++%%%%oo++%%%%%%%%+o+o++++ $+$++++",
"++++ooo  .o+%%%%++++%%%%%%%%++++%%%%o+++%%%%%%%%+oo++oo.o+++++++"
};
