/* XPM */
static char *b45f9d728f4240b5c9133ae6dcc3acdae1SLrbG8uz5t0XMQ[] = {
/* columns rows colors chars-per-pixel */
"64 64 16 1 ",
"  c #242321",
". c #242322",
"X c #262323",
"o c #252422",
"O c #252423",
"+ c #272624",
"@ c #292325",
"# c #2A2325",
"$ c #282524",
"% c #372840",
"& c #3D3957",
"* c #57404E",
"= c #524A63",
"- c #911D55",
"; c #997D76",
": c #C7B198",
/* pixels */
"++++oo+++o++++ ++X+++++ %%%%%%%%%%%%%%%%+++++++++++ +++++++++$+o",
"+++++++++o ++ +++++++++ %%%%%%%%%%%%%%%%+++++ +++++  +++++.. o++",
"++++$+@$++  X.++++++++o+%%%%%%%%%%%%%%%%++$ + ++++++++++++ . oo+",
"++++$ @$+++ .. +++oo++o+%%%%%%%%%%%%%%%% ++ . ++++++  +++  X++o+",
"+++ooo +++++++++++ .%%%%================%%%%+    +++..++ .+++++ ",
"+++   +++++++++++++.%%%%================%%%%+++X.++++++++++++++ ",
"+++ooo++++++o++++ + %%%%================%%%%.+++++++ +++++++  ++",
"+++++++++++o  ++++++%%%%================%%%% +++++++$++++ +++ ++",
"++o+++++++   +++ + +%%%%========&&&&&&&&%%%%  +++o+++++ooo++++++",
"++o++ +    o++++++++%%%%========&&&&&&&&%%%%++++o.o++++. +++ o++",
"++o+ X+++  ++ ++++++%%%%========&&&&&&&&%%%%++++oooo+++.o+++o+++",
"++o..o+++++++ ++++++%%%%========&&&&&&&&%%%%o+oo...o++ooo++o+++o",
"+++  $+ o++++..o++++%%%%====----::::----%%%%+ o+o+ o+o+o++.Xo++o",
"++++++++  o++X.o++  %%%%====----::::----%%%%$o+++++++++++oo  o++",
"+ +++++++  o+ o+++  %%%%====----::::----%%%%+++oo+++++++++++ +++",
"++++++ +++++++o+++++%%%%====----::::----%%%%++++ooo++++++o +++++",
" +.+++..++++++ X++++%%%%====;;;;%%%%;;;;%%%%+++$  o+++++@+++++++",
"  ++++ .  +++++++++ %%%%====;;;;%%%%;;;;%%%%+++$o++++++  +++++++",
"  ++$o $  o+++++++o+%%%%====;;;;%%%%;;;;%%%%++@@+++++    $$+  ++",
"+ +++o$$+oo++ +++oo %%%%====;;;;%%%%;;;;%%%%++@@++++++++$$+++++ ",
"+++++o++++++++X+++  %%%%====%%%%****%%%%&&&&%%%%++oo++++++++++  ",
"+++++++++++++++++$ +%%%%====%%%%****%%%%&&&&%%%%++  +++++++++. +",
"+++++++++++$++   +++%%%%====%%%%****%%%%&&&&%%%%++++++.+++++..++",
"+++o++++oo+o+++o+ ++%%%%====%%%%****%%%%&&&&%%%%++o++ .o++oo.X +",
"+++o.+++.+..++ +%%%%========%%%%%%%%%%%%%%%%&&&&%%%%..O++++  + +",
"++$+++++++oo+$$+%%%%========%%%%%%%%%%%%%%%%&&&&%%%%..++++++++++",
"++++o++++++++@o+%%%%========%%%%%%%%%%%%%%%%&&&&%%%%..++o+++++o+",
"++  ++o++++++@X+%%%%========%%%%%%%%%%%%%%%%&&&&%%%@..  o+++++++",
" +++ +X.+o++%%%%========%%%%%%%%%%%%%%%%%%%%&&&&%%%%+   o+++++++",
" +++++ +++ o%%%%========%%%%%%%%%%%%%%%%%%%%&&&&%%%%+   ++++++++",
" ++++++++++ %%%%========%%%%%%%%%%%%%%%%%%%%&&&&%%%%+o+o++++++++",
"++++ o++o+++%%%%========%%%%%%%%%%%%%%%%%%%%&&&&%%%%++++o++++++o",
"+++ ..+++++$%%%%====&&&&%%%%%%%%%%%%%%%%%%%%&&&&%%%%+++O.+++++ O",
"o++++O+++++$%%%%====&&&&%%%%%%%%%%%%%%%%%%%%&&&&%%%%O++O.O+ + +.",
"++++++O+++#$%%%%====&&&&%%%%%%%%%%%%%%%%%%%%&&&&%%%%O++++++.o.++",
" o++++O+++@@%%%%====&&&&%%%%%%%%%%%%%%%%%%%%&&&&%%%%++OX++++++.+",
" +++OO++++++%%%%====;;;;%%%%%%%%%%%%%%%%::::&&&&%%%%+++.++++++ +",
"+++ OO++++++%%%%====;;;;%%%%%%%%%%%%%%%%::::&&&&%%%%+++ +++ ++  ",
"++ +O+OO.+++%%%%====;;;;%%%%%%%%%%%%%%%%::::&&&&%%%%o+++++++ ++o",
"+++++OOOO+++%%%%====;;;;%%%%%%%%%%%%%%%%::::&&&&%%%%++++++++++++",
"+++++ $o++o @%%%====%%%%::::%%%%%%%%::::%%%%&&&&%%%%+oo+++..o+o$",
"++++++++++o+%%%%====%%%%::::%%%%%%%%::::%%%%&&&&%%%%+oo+++++$$@$",
"+++ ++++++X+%%%%====%%%%::::%%%%%%%%::::%%%%&&&&%%%%+oo+++++$  $",
".+..++++++$+%%%%====%%%%::::%%%%%%%%::::%%%%&&&&%%%%oo+++@@+++$$",
"+ +++X +++++%%%%====%%%%%%%%::::%%%%%%%%%%%%&&&&%%%%oo+++o+o+o++",
"+++o++ +++++%%%%====%%%%%%%%::::%%%%%%%%%%%%&&&&%%%%+++++++oooo+",
"++.oo+ X++X$%%%%====%%%%%%%%::::%%%%%%%%%%%%&&&&%%%%++++++oo++++",
"  o++ ..+$@+%%%%====%%%%%%%%::::%%%%%%%%%%%%&&&&%%%%+++++++o+++o",
"$ o+++  $+++%%%%====%%%%%%%%%%%%%%%%%%%%%%%%&&&&%%%%o$+++++++++o",
"+++++++ ++++%%%%====%%%%%%%%%%%%%%%%%%%%%%%%&&&&%%%% oo+++++o+++",
"++++++++.+++%%%%====%%%%%%%%%%%%%%%%%%%%%%%%&&&&%%%%+ o++++oo+++",
"+++o+ ++ +++%%%%====%%%%%%%%%%%%%%%%%%%%%%%%&&&&%%%%++++++oo++++",
"+++++.+++o++%%%%%%%%%%%%%%%%%%%%%%%%%%%%%%%%&&&&%%%%+++++++o++++",
"++++++++oo++%%%%%%%%%%%%%%%%%%%%%%%%%%%%%%%%&&&&%%%%+++++o++++++",
"++ooo+++.o++%%%%%%%%%%%%%%%%%%%%%%%%%%%%%%%%&&&&%%%%+++++oo+++++",
"o+++..+++o++%%%%%%%%%%%%%%%%%%%%%%%%%%%%%%%%&&&&%%%%oo++o.o+++++",
"o++++oo++  +%%%%+++o%%%%%%%%++OO%%%%@$$$%%%%%%%%oooo.o++o.oo++++",
"o++++o++++++%%%%++  %%%%%%%%OO+O%%%%@@++%%%%%%%%+oo..+++o..+++++",
"+++++++++  +%%%%++  %%%%%%%%. O+%%%%++++%%%%%%%%++o.oo++++oo++++",
"+o++o++o++$+%%%%++ +%%%%%%%%  O+%%%%++++%%%@%%%%+++++++++++++++o",
"oo.++$o..o++++++++++++++ .o+.OO+++++++++++o.++o o+++++++++++++++",
"+++++++o..+++++++++++++o+.+++++++++++++++++oo++o+++++++++++++++o",
"++++o++o.o++++++++++o+.o+++++++++++++++++++oo++++$o+++++ $+$++++",
"++++ooo  .o++++++++++ ..+++++++++++o+++++++oo++++ooo+oo.o+++++++"
};
