/* XPM */
static char *d4453c44984a4f4d87b4766a79dfd3f6NBOZoP1QXf4EDAK1[] = {
/* columns rows colors chars-per-pixel */
"64 64 18 1 ",
"  c #242321",
". c #242322",
"X c #262323",
"o c #252422",
"O c #252423",
"+ c #272524",
"@ c #272624",
"# c #292224",
"$ c #292325",
"% c #2A2325",
"& c #282524",
"* c #372840",
"= c #3D3957",
"- c #57404E",
"; c #524A63",
": c #911D55",
"> c #997D76",
", c #C7B198",
/* pixels */
"@@@@oo@@@o@@@@ @@@@&@@@oo o@@@@@@@. oo&@@@@@@@@@@@o@@@@@@@o@@@@o",
"@@@@@@@@@o @@ @@@@@ @@@oooo@@ooo@o. @@&X@@@@@@@@@@@ @@@@@@o. o@@",
"@@@@&@$&@@  X.@@@@@o@@@@@@@@o o@@o @@@@@o@@o @@@@@@  @@@@o..ooo@",
"@@@@& $&@@@ .. @@@oo@@oo@@oooo@@@@  o@@@@o@   o@@@@@  @@@X..@@o@",
"@@@ooo @@@@@@@@@@@..@@o.****************@@@@@. o@@@@  @@@ o@@@@o",
"@@@   @@@@@@@@@@@@o.o@oX****************@@@@@@@XX @@@&@@@@@@@o@ ",
"@@@ooo@@@@@@o@@@@@@o.@@@****************@@oo.o@@@@@@@@@@@@@@ o@@",
"@@@@@@@@@@@o  @@@@@o.o@@****************o@@  @@@@@@@@@@@@ @@@o@@",
"@@o@@@@@@@   @@@ @ @****;;;;;;;;;;;;;;;;****  @@@o@@@@@@ @@@@@@@",
"@@o@@ @    o@@@@@@@@****;;;;;;;;;;;;;;;;****@@@@o..@@@@   @@ @@@",
"@@o@ X@@@  @@ @@@@@@****;;;;;;;;;;;;;;;;****@@@@o ..@@o @@@@ @@@",
"@@o..o@@@@@@@ @@@@@@****;;;;;;;;;;;;;;;;****o@oo  .@@@   @@ @@@ ",
"@@@  &@ o@@@@..o@@@@****;;;;;;;;========****@ o@o@o@@o@@@@..@@@@",
"@@@@@@@@  o@@X.o@@  ****;;;;;;;;========****&o@@@@@@@@@@@&o.  @@",
"@ @@@@@@@  o@ o@@@  ****;;;;;;;;========****@@@o@@@@@@@@@@@   @@",
"@@@@@@ @@@@@@@o@@@@@****;;;;;;;;========****@@@@  o@@@@@@o@@@@@@",
" @.@@@..@@@@@@o@@@@@****;;;;::::,,,,::::****@@@O  o@@@@@&&@@@@@@",
"  @@@@ ...@@@@@@@@@o****;;;;::::,,,,::::****@@@@ @@@@@@o &@@@@@@",
"  @@&o & X @.@@@@@oo****;;;;::::,,,,::::****@@%@@@@@@o o &@@ @@@",
"@ @@@o&&@oX@o&@@@   ****;;;;::::,,,,::::****@@@@@@@@@@o@&&@@@ @ ",
"@@@@@o@@@@@@@@ @@o o****;;;;>>>>****>>>>****@@@@@@.o@@@@@@@@@&@ ",
"@@@@@@@@@@@@@@@@@@ @****;;;;>>>>****>>>>****@@@@@@O @@@@@@o@  .@",
"@@@@@@@@&@@@@@..o@@@****;;;;>>>>****>>>>****@@@%@@@@@@.@@@@@.o@@",
"@@@o@@@@ @ @@@@@oo@@****;;;;>>>>****>>>>****@@@%@@o@o..o@@oo...@",
"@@@o.@@@.@..@@ @@ @@****;;;;****----****====****@@@o..o@@@@o.@oo",
"@@&@@@@@@@oo&&&@@@@@****;;;;****----****====****@@oo.oo@@@@@o@@@",
"@@@@o@@@@@@@&&&@@@@@****;;;;****----****====****@@oo..o@o@@@@@@@",
"@@  @@o@@@@@&& @@@@@****;;;;****----****====****@@ooo. .@@@@@@o@",
" @@@ @X.@o@@@@@@****;;;;;;;;****************====%***@oo.@@@@@@@@",
" @@@@@ @@@ o@oo@****;;;;;;;;****************====****o...o@@@@@@@",
" @@@@@@@@@@   o@****;;;;;;;;****************====****@@o@@@@@@@@@",
"@@@@ o@@o@@@ooo@****;;;;;;;;****************====****@@@o@@@@@@o@",
"@@@@..@@&@@@****;;;;;;;;********************====****@@@O..@@@@..",
"@O@@@@O@&@@@****;;;;;;;;********************====****O@@O.@@@@.o.",
".@@@@@O@@@&@****;;;;;;;;********************====****OX@@o@@.@o@@",
".@@@@O@@&@&$****;;;;;;;;********************====****@@@O@@@@@oo@",
".@@@OO@@&@@@****;;;;====********************====****@@OOo@@@@@ @",
"o@@ OO@@@@@@****;;;;====********************====****@@@O@@@@@@  ",
"@@  O@OOX@@@****;;;;====********************====****X@@@@@@@o@&o",
"@@@@@OOOX@@X****;;;;====********************====****@@O@@@o@@@&&",
"@@@@@@@o@@  $***>>>>************************,,,,****@oo@@@o.@@@@",
"@@@@@@@@@@X@****>>>>************************,,,,****@oo@@@@@@@$$",
"@@@o@@@@@@&@****>>>>************************,,,,****@oo@@&&&@o &",
" @ oX@@@@@@X****>>>>************************,,,,***$o @@o&&&@o&&",
"oo@@@@  @@@@****;;;;,,,,****************,,,,====****oo@@@o@o@o@@",
"@@@o@@@&@@ @****;;;;,,,,****************,,,,====****@@@@@@@oooo@",
"@@ &oo..@@$@****;;;;,,,,****************,,,,====****@@@@@@oo@@@@",
"oo @@o..@@$@****;;;;,,,,****************,,,,====****@@@@@@@o@@@o",
"@oo@@@o.@@@@****;;;;****,,,,****************====****o@@@@@@@@@@@",
"@o@@@@@oo@@@****;;;;****,,,,****************====****@@X@@@@OO@@@",
"@@@@@@@@.@@@****;;;;****,,,,****************====****@@@@@@@OO@@@",
"@@@@@oo@o@@@****;;;;****,,,,****************====****@@@@@@OO@@@@",
"@@@@..@@@o@@****;;;;************************====****$$@@@@@@@@@@",
"@@@@&o@@oo@@****;;;;************************====****&&@@@.@@@@@@",
"@@oo&@@@.o@@****;;;;************************====****&@@@@.O@@@@@",
".@@@oo@@@o@@****;;;;************************====****@@@@..O@@O@@",
".@@@@o @@oo@********************************====****  @@.. @@@@@",
"@@@@@@&@@oo@********************************====**** @@@o  @@@@@",
"@@@@@@@@@oo@********************************====**** @@@o@@o@@@@",
"oo@@o@@o@@@@********************************====****@@@@&@@@@@@@",
"@..@@&oo.o@@****@@@@********o @@****@@@@********o@@@@@@@@@@@@@@@",
"@@@@@@oo..@@****@@@@********@@@@****@ @@********@@@@@@@@@@@@@@o.",
"@@@@o@@o.o@@****@@@@********@@@@****o @@********@@@o@@@@o@@@@@@@",
"@@@@ooo   o@****@@@@********@@@@**** @@@********o  @@@   @@@@@@@"
};
