/* XPM */
static char *_840a9eda8274b67830593e0f946f8ffR8Xjh9C2yVDLkm0t[] = {
/* columns rows colors chars-per-pixel */
"64 64 116 2 ",
"   c #0F0D0C",
".  c #110F0E",
"X  c #12100F",
"o  c #161412",
"O  c #191614",
"+  c #1B1917",
"@  c #1D1C19",
"#  c #221D1B",
"$  c #1C211C",
"%  c #23211E",
"&  c #28211F",
"*  c #262523",
"=  c #2B2523",
"-  c #2E2926",
";  c #2E2A29",
":  c #302725",
">  c #312926",
",  c #342C2B",
"<  c #382E2B",
"1  c #34322D",
"2  c #3A322E",
"3  c #37382F",
"4  c #372F30",
"5  c #363230",
"6  c #3B3232",
"7  c #3D3A33",
"8  c #3E3E38",
"9  c #413634",
"0  c #443A36",
"q  c #453C39",
"w  c #4B3F3B",
"e  c #424037",
"r  c #45423A",
"t  c #46443A",
"y  c #48423D",
"u  c #4D433D",
"i  c #4E433D",
"p  c #4D473E",
"a  c #4A483D",
"s  c #4C493F",
"d  c #4E483F",
"f  c #51453F",
"g  c #4F4640",
"h  c #4D4B41",
"j  c #4C4942",
"k  c #4E4842",
"l  c #504740",
"z  c #514B42",
"x  c #524B43",
"c  c #534D43",
"v  c #534D44",
"b  c #534F44",
"n  c #544F45",
"m  c #584F46",
"M  c #505043",
"N  c #535044",
"B  c #555246",
"V  c #535446",
"C  c #565548",
"Z  c #575548",
"A  c #565749",
"S  c #575749",
"D  c #5B534A",
"F  c #59564A",
"G  c #58574A",
"H  c #5D554B",
"J  c #5B584A",
"K  c #5D584C",
"L  c #5C5D4E",
"P  c #5D5F4F",
"I  c #60564C",
"U  c #615B4E",
"Y  c #625F4F",
"T  c #625E50",
"R  c #5E6050",
"E  c #616352",
"W  c #626252",
"Q  c #646453",
"!  c #646655",
"~  c #656655",
"^  c #656755",
"/  c #696556",
"(  c #686656",
")  c #6A6759",
"_  c #6B6B59",
"`  c #6E6A5A",
"'  c #6E6E5B",
"]  c #716C5B",
"[  c #726D5C",
"{  c #71725E",
"}  c #72725E",
"|  c #747661",
" . c #757661",
".. c #7A7663",
"X. c #777863",
"o. c #787863",
"O. c #7E7A66",
"+. c #7B7C66",
"@. c #7F7D68",
"#. c #7E7E68",
"$. c #807D68",
"%. c #807D69",
"&. c #817F69",
"*. c #7F8069",
"=. c #83856D",
"-. c #84866D",
";. c #84866E",
":. c #86866F",
">. c #89866F",
",. c #898770",
"<. c #8B8B72",
"1. c #8C8D74",
"2. c #909177",
"3. c #94957A",
"4. c #98997D",
"5. c #9C9D80",
/* pixels */
"* * * * * * * * % * * * * * * * * ; * * * * ; * * * * ; * * * * * ; * * * # * * * * * * * * * * ; * * * * * * * ; * * * * * * * ",
"* * * * * * % % * * * * * * * * * * * * * * * * * * * * * @ X @ * * * * * * * * * ; * * * ; * * * * * * ; * * * * * * * * * $ * ",
"* * * * ; * * * * * 8 1 * * * * * * * * * * * * * * * * * o O X * * * * * * * * * * * * * * * * * * * * * * * * * * ; * * * * * ",
"* * * * * * * * * ; A t * * * ; * * $ * * ; * * * * * * O X @ % * * * * * * @ * * * * * * * * * * * ; * * * * * * * * * * * * * ",
"* * * * * * * * * Y ^ R 7 * * * * * $ * * * * * * * * % . o o # @ * * * @ * * * * * * * * * % * * $ * * * * * * * * * * * * * * ",
"* * * * * * * * d 3.W 6 = * % % * * * * * * * * * * * @     X O @ * * * o 8 ; O * * * ; * % * * * * * ; * * * * * * * * * * * * ",
"* * - - * * * 5 } 1.P 6 : 6 @ * * * * * ; * * * = = * O .   . @ # @ * @ X @ 8 * # * * * * * * * * * * * * * * * * * * * * * * * ",
"* * * * - * * 6 &.W g 6 , 6 , @ ; * * * * * * * * * @ . . o . @ * X @ * o X * ; O * * * * * * * * * * * * ; * * * * * * ; * * * ",
"- * * * % * = 0 H P i 9 6 - 9 = * * * # * * * * $ $ o X o O X O o . # 6 O . O # O % * * ; * * * * * * * * * * * * * * * * * ; * ",
"* * * * * * = 0 n c w 1 # & 2 : * * * * * * * % * * 5 5 1 * + + * # k 9 o . O O o % * * * * * * * * * * * * * * * * ; * * * * * ",
"* * * * % * = < , , > # O + + < = * * # * * * b L ; 1 1 1 1 , ; # * ) y : O + + @ + * , * * * * * * * * * * * * * * * * * * * * ",
"* * * * * # y b A G 2 1 - & & & - * * * * # ; +.*.5 5 8 5 1 7 8 # * ] k 6 6 * 4 , @ + * ; * * * * * * * * * * * * * * * * * * * ",
"* * * * * : ] -.=.| W -.d 7 * & : = * * * * q -.X.h * 8 8 8 8 % # 8 D 4 - 6 @ = * O @ * ; * * * * * * * * * * * * * * ; * * * * ",
"* * * * = > K 1.=.,.&.G 6 6 = & - - * * * 9 5. .8 * % * 8 7 O & 5 k x 4 # # O O # o @ * * * * * * * * * * * * * * * * * * * * * ",
"* * % % * , i P l w w w 6 6 : > = - @ * < ' 2./ 0 : , = & # X & q ; ; = @ & & + + o @ * * * * ; * * * * * * * * ; * * * * * * * ",
"* * * * * , i P l w w w 6 6 - , , = + * - O.P x q 6 = = o # o # ^ :.q 6 4 = & o * = # O * * * * * * * ; 6 6 4 ; * * * * * * @ * ",
"* * * * - 0 q A d w i 9 : 6 = = = O = * , D P z 0 6 , & = o X , ` ..l 6 > & * # * 1 + o * * * = * ; 5 V P K R G h 8 * * * ; * * ",
"* * * * q N k 7 2 2 0 q A - & # O # > # - q c w , # = # - + % , 0 f w 6 > & % @ + # o o * * * 7 L R R R L L _ <.R 5 * * * * * * ",
"* * * 5 A R 1.} t 2 1 ^ J 7 + O # = = # * # - , # O O O : : # 8 e , 2 6 = q j t a % # O @ * * e 5.! R R L :.5.) 8 < * * * * * * ",
"* * * ; i  .4.} A 9 B *.A 0 & - , , # q B R R u 7 < : * = , = i &.q 3 8 P R R R R ' R N + * = 0 L 5.*.R X.5.) q ; q @ * * * * * ",
"* * & & i G >.P G 0 3.+.9 - : # < , : ) 1.1.-.P 1.T 6 * # = = = B Y R R L R R R } 3.R 1 o @ = u R D &.5.| ) q , * q = = * * * * ",
"* & % % w z  .J 2 ..-.H 6 , 9 6 : - : z &.&.O...D q 6 4 = - : # u 4.' R R R ^ 2.2.R q 2 o O * D 5.b k X.5.A 4 = - q # * * ; * * ",
"* % 8 8 = 2 d i , [ ^ n q 6 , 6 # # : w K z w w w 9 6 , - = = + f Y 3.<.P E 3.5.^ q , 0 = + = m <.n q T L 4 * & # 6 7 # * * * * ",
"% $ 0 J T G 7 & 9 l J z 0 , : 2 6 O - w P z w w w 6 6 - , < = O z P Y 4.=.} } +.t > = 0 = o = u } b y m 8 4 = & = 4 8 @ * ; * * ",
"% - u i Q 2._ d 0 t i 0 , # # % = - 0 < d d w w w 6 6 = # = # # u o.Z H =.4.} A 6 = - q > O 6 i B b w q q 4 # # # < : o = = * * ",
"% u q i >.-.J 2 0 7 7 - + + + + = 9 G g e , 9 0 9 2 2 - # O 1 Y M 7 e 9 c =.W 7 : & = 6 < O 2 < 0 w w T &.4 # # + # O O * * * * ",
"& w i Y 2.O.i 0 Y ^ ^ A A k 8 = : A W ,.<.c t > : = # # O = q A P J M d 6 W 1 4 & & # 6 0 = G G q 2 = q  .w O O + # 4 # * * * : ",
"% 2 q ) Q u , Y 3.4.4.+.#.A 6 > = i _ 4.+.J d w 9 9 6 9 9 q g b z P R R =.i 6 4 & # = < 9 # k -.=.t , < T =.* = = # 9 = @ * * * ",
"$ $ : u f u > u ^ ^ I I f q 6 , & q q L A u u u 9 : , 6 w n K L L P W =.-.i 1 , O # & < = O M 3.J & , 6 x ) , , # = q , @ * & * ",
"$ $ $ - 0 i , w G c w w w 0 6 = 0 e P ) ] ^ P R q ; 8 j b P C w K P  ...B i : 4 # % O # O + a 2.b = # = 0 t - # & - 9 q + * * * ",
"% $ $ $ = , 2 i B c w w i 9 q ) P R ^ 4.1.W L P K k A L P P P G W X...P W y > 4 O O O O = & 3 ^ 1 & % - 7 q w # & & 4 q @ * * * ",
"* & * $ $ - d > 2 t w w w < i 4.o.R ^ *.E R w N K V L L +.#.+.+.#.L w T 5.D & & o & = & 2 9 & 1 = & 6 '  .3.1.0 # & , q @ * * * ",
"* * * * & i A } =.: , < 2 : 0 m 1.3.) L T ^ ) T 2.&.&.%...q q w =.g w T 5.K - # > , = & < 0 O & - - 4 0 w f G 9 O # = = O # = = ",
"* * * * - B R 1.3.R H 3 2 : i R K =.3.@._ &.) U m 4 , # 9 9 4 6 ^ g w P +.g : , , & & - 9 0 = # > - 6 0 w i Z 6 # O # # # & * * ",
"* * * * % q J 3.} Z u q 6 & D 3.T g ) 4.=.G 4 : = 4 4 @ = 9 6 4 9 g w G D w < : , & & = , 9 u a + # 6 6 0 9 N k 9 O # # q % $ % ",
"* * * = # i i &.' R G N 0 - H 4.T w g -.) 8 , # = 4 0 # = 9 4 6 9 w w z l q 4 # 6 & # q A P G z 6 = = , , P <. .f + # : 0 , + $ ",
"- * * * - - 0 J Z f f G u > k -.T w g ..9 6 # = # , 6 = # + 4 4 , 9 9 9 9 2 t 1 , = + G X.W G A x q , , g k G A 2 + = , 6 9 # + ",
"* * $ ; J e 8 2 2 w w w 0 : f / L w g q 4 6 = # = , 0 # # O 6 , # 1 e 0 n  .#.R : & & u W O.W n P D g q R K =.] M a > 2 , - # + ",
"* * $ w f J } } 7 > & : & 9 w z m w q 9 6 4 + # # , = + O @ @ # O i &.=.<.4.5.+.y = = ]  .w  .' ]  .W T G A W  .` ,.2 & # + # O ",
"$ % , i q Y 2./ B t + O + 2 > 9 w w q 6 6 4 # & o # + + # , : # % 2 u u W | <.4.} - = K  .w _ 6 6 G A Y _  .^ X.1.Y 6 # O & # + ",
"$ % 9 w f -.2.Z l f i # q H A t 6 6 , % ; * O O # # 4 , + 4 9 6 , 6 i w x K W ] 4., , i T w q 6 6 # , , = k -.O.n -.i # & # + + ",
"$ $ 9 t I 1.] i w w 0 < i J -.-.P b q , - O o # 6 , < q O , q w 6 6 w w w l G Y  .W 1 2 w 0 6 6 , # 9 : % 4 n K i -.l O + o $ % ",
"* $ % > B Z i i w w : w i +.4.} w 9 6 , & = 6 q < & 6 w # , q 6 6 0 w w w l z f L e &...K n # - # o 6 = % , 6 g i ^ i # $ $ $ $ ",
"$ $ $ % : w w w w w > w i &.4.W q 9 4 , , 9 q , & & 9 w : : 9 9 6 6 9 9 q w w w 0 _ 2.=.T m # = : O O # # - 6 0 i q < : $ % $ * ",
"* * $ $ % : 0 w w 0 , w y b +.T f w 6 6 9 q 4 & = # 4 9 , , 6 4 , 4 - > 4 0 q w 2 2.W G w 0 4 9 , = < & O # : : t h A i * * * * ",
"$ * * $ $ $ % : = = 0 f w b R T f w q q w 6 6 : # # : 4 < @ 4 6 > % = # = 4 4 6 M G c f f q 4 q , : 4 ; 6 = - , q ] 1.n 6 * * * ",
"* * * % $ $ $ $ @ , w w g P D w w q w q 6 6 4 = # # - 4 , + , - g # + O # & & = c i q q 6 9 < 9 ; 9 6 & > q 4 4 0 H 2.d 0 * % * ",
"* * * * * $ % % # 9 w q g P H w w 9 9 w 6 4 6 : # O = - # O # - , # O O # & # 6 9 0 9 , # = - 4 & 9 - # : 6 q 0 q A W w i * * * ",
"* * * * * * * $ 6 i i q f D i w w w 9 - < 6 4 ; & # + # @ 1 P P P L 7 3 - 0 1 0 J 1 = = + O y ; # , = + = 6 6 q q w I n w 9 = = ",
"* - * * * * - $ # % - 2 w w w w w w 0 = 4 6 4 = # # # o A P P P L R R R e 3 & } ,.J u 7 % , T 1 & # + # : 4 4 6 w w l l w w = * ",
"* * * ; * * & 2 d R P 2 : 9 2 0 w 0 4 # = - & @ @ o , j P P P P R _ R d & & 7 <.W q 9 P ; , w i 9 = + # # 4 , , w w w 9 1 q , = ",
"* * * * % $ $ 2 J R -.>.&.9 0 # : : 6 9 6 ; : 4 , + L K P P P P ' } J 7 > $ f / u q 6 6 O % 6 b 9 , & - 4 - , 6 : 6 9 T +.W b @ ",
"* * * * ; $ $ 1 i A } 4.4.1.W T x x w 6 6 6 4 ; # * b ) ! W P 1.-.d 1 - q & % 1 9 i q % O - < T , 4 # # = 4 6 q z A +.4.,.Z q = ",
"* * * * * $ & q w i ] <.4.4.+.m g g w 6 4 6 , & # y L T 1.2.*._ L 6 = - i = % $ @ = = + * - 9 m = & & & & 6 6 q 9 w Y 1.,.N q 2 ",
"; * * * * $ ; i w c ^ 4.4.} B f w 9 q q 6 4 4 & = a =.x l X.5._ t > & , q # : $ $ @ @ : + @ 4 6 , # & # + 6 4 9 6 0 y G +.a 0 % ",
"* * * * $ $ 1 q i c ^ 4.} B w w 6 6 9 6 4 6 , O 0 ` 3.T w F =.y , = & - 0 6 O $ $ $ + = - , , g 4 & & # O 6 , 9 q 9 0 - - O @ = ",
"* ; * * $ $ + * < 2 V ) V i w w 0 9 6 9 6 6 > o i B 3.' w G P 6 , * & = < 9 O @ $ * $ @ * * 1 q ; * + o O @ O + & $ * $ % $ * * ",
"* * * * * $ $ $ $ + % - - 2 0 0 q q 0 < 4 4 ; O w f ^ B w g 4 6 , # & = 4 6 o @ * * * * @ @ @ + $ $ * * $ $ $ $ $ * * $ * * * * ",
"* * * * * * * $ $ $ $ $ $ % % % * = @ $ # ; = - 2 w q 9 < q 6 * & O # & * @ @ % * * * * * * * % * * * * * * * * = * * % * * * * ",
"* * * * * * * * % * % * * % & $ $ $ @ o O + o O # : & # # = * * # # # O # + $ * * * * * * * * * * * * * * * * * * * * * * * * * ",
"; * * * * * * % * ; * * $ * $ $ $ $ $ $ $ $ + $ + + + + $ + @ o + o O + @ $ * $ * * * * ; * * * % * * * * % * * * * * * * * * * ",
"* * ; * * * % * * * * * * * * * * * % * * * * * % * * * * * $ $ $ $ $ * * * * * * * * * * * * * % * * % * * * * * * * * * * * * ",
"; * * * * * % * * * * * * * * - * * * % $ * * * * * * * * * * * * * * * * * * * * * * * * * * * * * % * * * * * * * * * * @ * * ",
"* * * * * % * * * * * * * * * * * * * % * * * * * * * * * * * * * * * * * % * * * * * * * $ * * * * * * - * * * * * * * * * * * "
};
